<?xml version="1.0" encoding="UTF-8" standalone="no"?>
<svg
   height="249.63222"
   width="923.07697"
   viewBox="-72.03675 -32.46875 480.24501 60.789346"
   version="1.1"
   id="svg312"
   sodipodi:docname="thumb-github-text.svg"
   inkscape:version="1.2.2 (b0a84865, 2022-12-01)"
   xmlns:inkscape="http://www.inkscape.org/namespaces/inkscape"
   xmlns:sodipodi="http://sodipodi.sourceforge.net/DTD/sodipodi-0.dtd"
   xmlns="http://www.w3.org/2000/svg"
   xmlns:svg="http://www.w3.org/2000/svg">
  <defs
     id="defs316" />
  <sodipodi:namedview
     id="namedview314"
     pagecolor="#505050"
     bordercolor="#eeeeee"
     borderopacity="1"
     inkscape:showpageshadow="0"
     inkscape:pageopacity="0"
     inkscape:pagecheckerboard="0"
     inkscape:deskcolor="#505050"
     showgrid="false"
     inkscape:zoom="0.295"
     inkscape:cx="462.71186"
     inkscape:cy="271.18644"
     inkscape:window-width="1309"
     inkscape:window-height="456"
     inkscape:window-x="0"
     inkscape:window-y="44"
     inkscape:window-maximized="0"
     inkscape:current-layer="svg312" />
  <path
     d="m 20.46025,-11.423577 h -40.356 a 1.887,1.887 0 0 0 -1.886,1.8869994 V 10.193423 c 0,1.042 0.845,1.888 1.886,1.888 h 15.743 v 24.515 c 0,0 -3.535,1.204 -13.308,1.204 -11.53,0 -27.636,-4.212 -27.636,-39.6300006 0,-35.4260024 16.772,-40.0870024 32.517,-40.0870024 13.63,0 19.502,2.4 23.238,3.556 1.174,0.358 2.26,-0.81 2.26,-1.851 l 4.502,-19.064 c 0,-0.488 -0.165,-1.075 -0.72,-1.473 -1.517,-1.083 -10.774,-6.263 -34.161,-6.263 -26.94,0 -54.576,11.463 -54.576,66.56300237 0,55.10100063 31.64,63.31200063 58.303,63.31200063 22.076,0 35.468,-9.434 35.468,-9.434 0.552,-0.304 0.612,-1.076 0.612,-1.429 V -9.5365776 a 1.886,1.886 0 0 0 -1.886,-1.8869994 m 207.978,-48.986003 a 1.88,1.88 0 0 0 -1.873,-1.897 h -22.723 a 1.889,1.889 0 0 0 -1.881,1.897 l 0.005,43.914003 h -35.418 V -60.40958 c 0,-1.05 -0.836,-1.897 -1.876,-1.897 h -22.722 a 1.888,1.888 0 0 0 -1.876,1.897 V 58.494423 c 0,1.048 0.843,1.902 1.876,1.902 h 22.722 c 1.04,0 1.876,-0.854 1.876,-1.902 V 7.6344224 h 35.418 l -0.061,50.8600006 c 0,1.048 0.841,1.902 1.883,1.902 h 22.775 c 1.04,0 1.872,-0.854 1.874,-1.902 z m -165.099,15.603 c 0,-8.181 -6.56,-14.793 -14.653,-14.793 -8.085,0 -14.65,6.612 -14.65,14.793 0,8.174 6.565,14.804 14.65,14.804 8.093,0 14.653,-6.63 14.653,-14.804 m -1.625,78.219003 v -54.887 c 0,-1.041 -0.84,-1.893 -1.88,-1.893 h -22.65 c -1.04,0 -1.97,1.07 -1.97,2.113 v 78.636 c 0,2.31 1.44,2.998 3.304,2.998 h 20.408 c 2.239,0 2.788,-1.1 2.788,-3.035 z m 253.081,-56.602 h -22.548 c -1.035,0 -1.876,0.852 -1.876,1.902 v 58.301 c 0,0 -5.73,4.192 -13.86,4.192 -8.13,0 -10.288,-3.69 -10.288,-11.65 v -50.844 c 0,-1.05 -0.84,-1.902 -1.875,-1.902 h -22.885 c -1.032,0 -1.879,0.852 -1.879,1.902 v 54.692 c 0,23.646 13.179,29.432 31.308,29.432 14.875,0 26.867,-8.218 26.867,-8.218 0,0 0.57,4.331 0.83,4.844 0.257,0.512 0.93,1.03 1.658,1.03 l 14.559,-0.064 c 1.032,0 1.878,-0.854 1.878,-1.899 l -0.008,-79.817 c 0,-1.05 -0.842,-1.902 -1.881,-1.902 m 52.736,64.324 c -7.822,-0.239 -13.127,-3.787 -13.127,-3.787 V -0.30857763 c 0,0 5.233,-3.20799997 11.655,-3.78099997 8.12,-0.727 15.944,1.725 15.944,21.0960006 0,20.425 -3.53,24.457 -14.472,24.127 m 8.893,-66.994003 c -12.807,0 -21.517,5.715003 -21.517,5.715003 V -60.40958 c 0,-1.05 -0.84,-1.897 -1.875,-1.897 h -22.788 a 1.887,1.887 0 0 0 -1.877,1.897 V 58.494423 c 0,1.05 0.841,1.903 1.88,1.903 h 15.81 c 0.712,0 1.251,-0.368 1.65,-1.011 0.393,-0.639 0.96,-5.481 0.96,-5.481 0,0 9.317,8.829 26.956,8.829 20.71,0 32.585,-10.504 32.585,-47.155 0,-36.65 -18.968,-41.440003 -31.784,-41.440003 m -249.403,2.482003 h -17.045 l -0.026,-22.519003 c 0,-0.852 -0.438,-1.278 -1.425,-1.278 h -23.227 c -0.902,0 -1.388,0.398 -1.388,1.266 v 23.270003 c 0,0 -11.64,2.809 -12.426,3.037 a 1.886,1.886 0 0 0 -1.362,1.812 v 14.6229994 c 0,1.05 0.84,1.9 1.879,1.9 h 11.91 V 33.910423 c 0,26.128 18.327,28.695 30.694,28.695 5.652,0 12.412,-1.815 13.528,-2.227 0.675,-0.248 1.068,-0.946 1.068,-1.704 l 0.019,-16.086 c 0,-1.05 -0.887,-1.9 -1.884,-1.9 -0.994,0 -3.535,0.405 -6.151,0.405 -8.372,0 -11.21,-3.892 -11.21,-8.93 V -1.2685776 h 17.046 a 1.89,1.89 0 0 0 1.881,-1.9 V -21.483577 c 0,-1.05 -0.842,-1.895 -1.881,-1.895"
     fill="#0f0e0f"
     id="path310" />
</svg>
