<?xml version="1.0" encoding="UTF-8" standalone="no"?>
<!-- Created with Inkscape (http://www.inkscape.org/) -->

<svg
   version="1.1"
   id="unilogo"
   viewBox="0 0 2283.4841 3208.1111"
   sodipodi:docname="unioulu.svg"
   inkscape:version="1.2.2 (b0a8486541, 2022-12-01)"
   xmlns:inkscape="http://www.inkscape.org/namespaces/inkscape"
   xmlns:sodipodi="http://sodipodi.sourceforge.net/DTD/sodipodi-0.dtd"
   xmlns="http://www.w3.org/2000/svg"
   xmlns:svg="http://www.w3.org/2000/svg">
  <style
     id="style1186">
#path84, #path80, #path76, #path72, #path70, #path66, #path62, #path58, #path54, #path52, #path48, #path44, #path40, #path36, #path32, #path28, #path24, #path20, #path16, #path12 { 
    fill:currentColor;
    stroke:currentColor;
}
</style>
  <defs
     id="defs6" />
  <sodipodi:namedview
     id="namedview4"
     pagecolor="#505050"
     bordercolor="#eeeeee"
     borderopacity="1"
     inkscape:showpageshadow="0"
     inkscape:pageopacity="0"
     inkscape:pagecheckerboard="0"
     inkscape:deskcolor="#505050"
     showgrid="false"
     inkscape:zoom="0.32012607"
     inkscape:cx="-367.04289"
     inkscape:cy="1619.6744"
     inkscape:window-width="2556"
     inkscape:window-height="1412"
     inkscape:window-x="0"
     inkscape:window-y="0"
     inkscape:window-maximized="1"
     inkscape:current-layer="g8" />
  <g
     id="g8"
     inkscape:groupmode="layer"
     inkscape:label="UniOulu_Logo_Ver_ENG_black_CMYK"
     transform="matrix(1.3333333,0,0,-1.3333333,-280.37773,3484.3687)">
    <g
       id="g10"
       transform="translate(575.1245,1841.1443)">
      <path
         d="m 0,0 h 135.026 v -226.826 h 66.346 222.582 V 0 h 135.023 v -226.826 h 65.616 156.965 66.339 V 0 H 982.931 V -397.95 H 915.419 800.147 738.826 L 694.184,-799.001 H 288.747 L 244.105,-397.95 H 182.779 85.378 0 Z m 158.642,-493.457 44.641,-401.05 h 576.364 l 44.645,401.05 h 91.127 163.015 V 95.503 H 752.393 v -47.75 -179.075 h -97.91 V 95.503 H 328.448 V -131.322 H 230.532 V 95.503 H -95.503 v -588.96 H 85.378 Z"
         style="fill-opacity:1;fill-rule:nonzero"
         id="path12" />
    </g>
    <g
       id="g14"
       transform="translate(1605.8906,2424.178)">
      <path
         d="m 0,0 -65.521,65.518 -5.98,-5.981 -276.047,-276.047 65.519,-65.523 z"
         style="fill-opacity:1;fill-rule:nonzero"
         id="path16" />
    </g>
    <g
       id="g18"
       transform="translate(809.3105,2142.1448)">
      <path
         d="m 0,0 65.521,65.523 -282.031,282.028 -65.517,-65.521 5.984,-5.981 z"
         style="fill-opacity:1;fill-rule:nonzero"
         id="path20" />
    </g>
    <g
       id="g22"
       transform="translate(1110.9893,2613.2766)">
      <path
         d="M 0,0 H -92.656 V -8.459 -398.842 H 0 Z"
         style="fill-opacity:1;fill-rule:nonzero"
         id="path24" />
    </g>
    <g
       id="g26"
       transform="translate(581.9702,262.5872)">
      <path
         d="M 0,0 -9.545,-9.545 H -54.439 L -63.673,0 v 105.697 l 9.555,9.545 H -9.545 L 0,105.697 Z M -75.125,161.091 -114.61,121.616 V -15.919 l 39.485,-39.475 h 86.587 l 39.475,39.475 v 137.535 l -39.475,39.475 z"
         style="fill-opacity:1;fill-rule:nonzero"
         id="path28" />
    </g>
    <g
       id="g30"
       transform="translate(660.8286,207.1936)">
      <path
         d="m 0,0 h 50.947 v 80.546 h 76.4 v 45.838 h -76.4 v 44.252 h 101.874 v 45.848 L 0,216.484 Z"
         style="fill-opacity:1;fill-rule:nonzero"
         id="path32" />
    </g>
    <g
       id="g34"
       transform="translate(1017.397,262.5872)">
      <path
         d="M 0,0 -9.545,-9.545 H -54.43 L -63.664,0 v 105.697 l 9.545,9.545 H -9.545 L 0,105.697 Z M -75.125,161.091 -114.6,121.616 V -15.919 l 39.475,-39.475 h 86.587 l 39.485,39.475 v 137.535 l -39.485,39.475 z"
         style="fill-opacity:1;fill-rule:nonzero"
         id="path36" />
    </g>
    <g
       id="g38"
       transform="translate(1342.2666,423.678)">
      <path
         d="M 0,0 H -50.937 V -216.484 H 89.138 v 45.848 H 0 Z"
         style="fill-opacity:1;fill-rule:nonzero"
         id="path40" />
    </g>
    <g
       id="g42"
       transform="translate(1209.2676,264.1741)">
      <path
         d="M 0,0 -9.545,-9.544 H -54.106 L -63.65,0 v 159.504 h -50.949 V -17.505 l 39.487,-39.475 h 86.573 l 39.486,39.475 V 159.504 H 0 Z"
         style="fill-opacity:1;fill-rule:nonzero"
         id="path44" />
    </g>
    <g
       id="g46"
       transform="translate(1564.4092,264.1741)">
      <path
         d="M 0,0 -9.545,-9.544 H -54.106 L -63.65,0 v 159.504 h -50.949 V -17.505 l 39.487,-39.475 h 86.573 l 39.486,39.475 V 159.504 H 0 Z"
         style="fill-opacity:1;fill-rule:nonzero"
         id="path48" />
    </g>
    <g
       id="g50"
       transform="translate(536.1963,483.1126)">
      <path
         d="M 0,0 H 55.394 V 216.484 H 4.457 L 7.638,79.903 -73.861,216.484 h -55.393 V 0 h 50.937 l -3.182,136.571 z"
         style="fill-opacity:1;fill-rule:nonzero"
         id="path52" />
    </g>
    <path
       d="M 622.703,483.113 H 673.64 V 699.597 H 622.703 Z"
       style="fill-opacity:1;fill-rule:nonzero"
       id="path54" />
    <g
       id="g56"
       transform="translate(789.1123,528.9612)">
      <path
         d="m 0,0 h -1.264 l -47.444,170.636 h -51.569 l 60.481,-216.485 h 78.328 l 60.482,216.485 h -51.57 z"
         style="fill-opacity:1;fill-rule:nonzero"
         id="path58" />
    </g>
    <g
       id="g60"
       transform="translate(1062.5049,653.7483)">
      <path
         d="M 0,0 V 45.849 H -159.184 V -170.636 H 0 v 45.849 h -108.247 v 41.06 h 82.773 v 45.848 h -82.773 V 0 Z"
         style="fill-opacity:1;fill-rule:nonzero"
         id="path62" />
    </g>
    <g
       id="g64"
       transform="translate(1205.0264,612.6877)">
      <path
         d="M 0,0 -9.224,-9.555 H -63.663 V 41.061 H -9.545 L 0,31.516 Z M 50.947,-15.918 V 47.435 L 11.462,86.909 h -126.063 v -216.484 h 50.938 v 74.172 h 28.966 l 37.568,-74.172 h 54.44 l -40.429,79.592 z"
         style="fill-opacity:1;fill-rule:nonzero"
         id="path66" />
    </g>
    <g
       id="g68"
       transform="translate(1331.3389,623.8293)">
      <path
         d="m 0,0 v 20.374 l 9.545,9.545 h 94.236 V 75.768 H -11.462 L -50.947,36.293 v -50.626 l 22.613,-27.06 85.635,-23.556 v -20.374 l -9.545,-9.545 H -55.403 v -45.849 H 68.763 l 39.474,39.475 v 50.616 l -22.602,27.059 z"
         style="fill-opacity:1;fill-rule:nonzero"
         id="path70" />
    </g>
    <path
       d="m 1462.73,483.113 h 50.937 v 216.484 h -50.937 z"
       style="fill-opacity:1;fill-rule:nonzero"
       id="path72" />
    <g
       id="g74"
       transform="translate(1535.2354,653.7483)">
      <path
         d="m 0,0 h 60.482 v -170.636 h 50.937 V 0 h 60.492 V 45.849 H 0 Z"
         style="fill-opacity:1;fill-rule:nonzero"
         id="path76" />
    </g>
    <g
       id="g78"
       transform="translate(1865.2754,699.5969)">
      <path
         d="m 0,0 -48.397,-100.288 h -1.265 L -98.061,0 h -57.621 l 79.593,-149.95 v -66.534 h 54.118 v 66.534 L 57.621,0 Z"
         style="fill-opacity:1;fill-rule:nonzero"
         id="path80" />
    </g>
    <g
       id="g82"
       transform="translate(324.8813,540.094)">
      <path
         d="M 0,0 -9.544,-9.545 H -54.106 L -63.65,0 v 159.503 h -50.948 V -17.506 l 39.486,-39.475 h 86.573 l 39.487,39.475 V 159.503 H 0 Z"
         style="fill-opacity:1;fill-rule:nonzero"
         id="path84" />
    </g>
  </g>
</svg>
