<?xml version="1.0" encoding="UTF-8" standalone="no"?>
<!-- Created with Inkscape (http://www.inkscape.org/) -->

<svg
   width="100"
   height="102"
   viewBox="0 0 130.65739 134.30283"
   version="1.1"
   id="svg611"
   inkscape:version="1.2.1 (9c6d41e410, 2022-07-14, custom)"
   sodipodi:docname="dual_color.svg"
   xmlns:inkscape="http://www.inkscape.org/namespaces/inkscape"
   xmlns:sodipodi="http://sodipodi.sourceforge.net/DTD/sodipodi-0.dtd"
   xmlns="http://www.w3.org/2000/svg"
   xmlns:svg="http://www.w3.org/2000/svg">
  <sodipodi:namedview
     id="namedview613"
     pagecolor="#505050"
     bordercolor="#eeeeee"
     borderopacity="1"
     inkscape:showpageshadow="0"
     inkscape:pageopacity="0"
     inkscape:pagecheckerboard="0"
     inkscape:deskcolor="#505050"
     inkscape:document-units="mm"
     showgrid="false"
     inkscape:zoom="0.914906"
     inkscape:cx="167.23029"
     inkscape:cy="479.28421"
     inkscape:window-width="2560"
     inkscape:window-height="1440"
     inkscape:window-x="0"
     inkscape:window-y="0"
     inkscape:window-maximized="1"
     inkscape:current-layer="layer1" />
  <defs
     id="defs608" />
  <g
     inkscape:label="Layer 1"
     inkscape:groupmode="layer"
     id="layer1"
     transform="translate(-61.048125,-21.919669)">
    <g
       id="g591"
       transform="matrix(0.26458333,0,0,0.26458333,61.055503,21.824686)">
      <path
         style="fill:#d1ae3f"
         d="M 6.25,506.77951 C 1.6185715,504.54585 6.2925229,497.83534 20.026661,487 c 11.24715,-8.87327 22.829128,-19.034 31.916525,-28 4.180854,-4.125 9.540881,-9.01888 11.911171,-10.8753 5.160246,-4.04151 18.373825,-19.69149 21.042398,-24.92232 1.045939,-2.05021 2.340922,-7.36067 2.87774,-11.80103 1.258704,-10.41152 3.079055,-14.06741 11.126455,-22.34576 9.13856,-9.40083 13.08241,-11.21851 26.09905,-12.02878 13.93385,-0.86737 20.5001,-4.385 28.86388,-15.46275 6.09136,-8.06794 7.11176,-10.85575 8.58278,-23.44889 1.89507,-16.22333 7.95021,-27.64447 19.13216,-36.08693 7.73495,-5.83995 12.77681,-7.5827 27.46556,-9.49365 25.20323,-3.27886 38.99563,-18.20187 41.54101,-44.94629 0.37104,-3.89856 1.51612,-10.42278 2.54462,-14.49826 1.02849,-4.07548 1.86999,-8.5894 1.86999,-10.03093 0,-1.44152 2.41907,-7.33204 5.37571,-13.09003 2.95664,-5.758 5.92453,-12.82327 6.59531,-15.70061 1.42279,-6.10315 4.94346,-11.39157 13.24368,-19.89344 5.97969,-6.12498 5.97969,-6.12498 2.62524,-8.68354 -7.67628,-5.85499 -13.80807,-7.82416 -17.78641,-5.71196 -7.66425,4.06914 -19.90131,5.05154 -23.69589,1.90233 -0.89502,-0.74281 -4.89242,-1.61763 -8.88309,-1.94404 -10.16536,-0.83147 -15.58611,-4.72351 -20.54106,-14.74828 -1.96158,-3.96864 -4.97994,-8.67399 -6.70747,-10.45635 -6.40322,-6.60644 -8.30136,-19.11334 -3.72602,-24.55082 2.57293,-3.05775 3.26313,-6.59269 1.5,-7.68237 -1.90746,-1.17887 -1.10735,-9.044378 1.28192,-12.602117 1.7597,-2.620273 3.0756,-3.45966 5.75,-3.667826 6.29012,-0.489601 7.74103,-1.180069 9.79499,-4.661267 6.08097,-10.306478 27.8886,-9.383267 32.43301,1.37303 2.10333,4.978448 2.10333,4.978448 8.38934,4.871332 5.82814,-0.09932 6.61118,0.159339 10.75028,3.551019 5.87708,4.815822 10.11011,13.165149 8.63785,17.037489 -1.71849,4.51996 -1.21026,6.6646 2.57126,10.85029 4.69352,5.19515 4.7406,14.16742 0.10327,19.67857 -3.51082,4.17237 -3.41797,5.45535 0.56489,7.8053 1.80225,1.06335 4.87323,3.33503 6.8244,5.04819 4.53165,3.97883 18.7793,14.21599 19.78524,14.21599 0.42071,0 1.78764,-1.08863 3.03763,-2.41918 1.24998,-1.33055 4.40887,-3.33814 7.01976,-4.46131 5.46988,-2.35308 6.36424,-3.27946 7.96348,-8.24859 1.36465,-4.24019 3.09739,-5.98213 9.11694,-9.16535 3.24157,-1.71418 5.076,-3.63501 6.9409,-7.26777 2.2399,-4.36326 3.51667,-5.4614 10.97298,-9.4378 7.86905,-4.19651 8.53624,-4.80349 9.89259,-9 2.11206,-6.53464 4.49033,-9.42591 10.58092,-12.86323 4.18533,-2.36205 5.56377,-3.748373 6.08451,-6.119297 1.02822,-4.681438 4.94108,-8.691995 9.2482,-9.4791 5.41703,-0.989936 8.13642,-3.09443 10.19041,-7.886192 0.99465,-2.320421 3.38573,-5.422001 5.31353,-6.8924 3.16226,-2.411977 3.54665,-3.240051 3.93015,-8.466617 0.25658,-3.496786 1.51958,-8.100611 3.18624,-11.614251 2.76116,-5.821087 2.76116,-5.821087 -1.30177,-13.91258 -8.32659,-16.582772 -3.88165,-26.401635 15.2105,-33.599954 16.84127,-6.3496695 30.16877,-6.4125491 35.87115,-0.1692413 C 464.70788,6.70875 466.90051,8 468.24363,8 471.24757,8 473,9.7558828 473,12.765741 c 0,3.896376 1.67123,5.891727 8.24472,9.843723 13.24964,7.965714 14.40447,9.47847 10.7665,14.103406 -1.25301,1.592939 -1.78099,3.356262 -1.42711,4.766208 0.64814,2.582407 -2.81575,6.856652 -8.87852,10.955586 -4.4135,2.983892 -5.894,3.143214 -9.18296,0.988209 -4.09201,-2.681192 -6.92179,-1.545914 -7.67001,3.077127 -0.35606,2.2 -1.14154,6.7 -1.7455,10 -0.65351,3.570749 -0.84241,10.257118 -0.46657,16.514645 0.70663,11.76472 0.54908,12.124488 -6.34785,14.495542 -3.51324,1.207792 -3.81858,1.6597 -5.34111,7.904963 -1.94962,7.99711 -5.2679,11.86488 -12.13648,14.14626 -3.82191,1.26943 -5.1486,2.30098 -6.20209,4.82233 -1.78953,4.28296 -6.03522,6.9449 -12.10203,7.58768 -4.76773,0.50513 -5.08483,0.73074 -7.14901,5.08631 -2.92424,6.17037 -8.13169,10.56889 -13.5311,11.4292 -3.56905,0.56866 -5.39075,1.7739 -10.35602,6.85156 -3.31382,3.38883 -7.87194,7.60376 -10.12914,9.36651 -2.25721,1.76275 -5.47218,5.62926 -7.14438,8.59223 -2.51896,4.46336 -3.91162,5.76204 -8.12085,7.5728 -4.49496,1.93368 -5.08049,2.53181 -5.08049,5.18989 0,5.10222 -2.54703,9.53234 -7.40022,12.87143 -5.86118,4.03259 -5.81468,4.43346 1.53431,13.22799 3.37374,4.03736 10.18455,12.74066 15.13512,19.34066 4.95058,6.6 9.33585,12.37311 9.74506,12.82914 0.40921,0.45603 2.69318,1.26709 5.0755,1.80237 5.93504,1.33351 6.91023,2.4071 6.91023,7.60751 0,4.32728 0.0988,4.47524 2.66161,3.98534 1.46388,-0.27984 4.61342,0.21459 6.99897,1.09874 6.04078,2.23887 8.28889,0.28931 6.51062,-5.64603 C 403.76523,245.14668 407.10608,239 413.87673,239 c 5.6209,0 6.36231,3.13981 2.63304,11.1507 -2.90996,6.25093 -3.08191,8.1343 -0.93834,10.27787 2.26488,2.26488 2.97957,2.02286 7.16645,-2.42693 4.56292,-4.84943 6.67045,-5.02026 9.27308,-0.75164 3.91452,6.42028 -0.13511,12.73683 -8.18404,12.76531 -6.74851,0.0239 -6.97804,0.41275 -7.27437,12.32406 -0.16743,6.73016 -0.72697,11.16586 -1.53067,12.13426 -2.88026,3.47051 -11.29045,0.71831 -15.64685,-5.12036 -1.58127,-2.1193 -5.14081,-6.10327 -7.9101,-8.85327 -2.76929,-2.75 -6.26537,-6.66872 -7.76906,-8.70826 -1.75313,-2.37788 -4.02523,-4.06479 -6.3332,-4.70205 -4.80728,-1.32735 -7.16152,-3.62896 -8.39411,-8.20644 -1.23868,-4.6001 -6.40231,-11.58504 -10.71056,-14.48836 -2.96449,-1.99778 -3.47991,-2.04435 -8.42575,-0.76142 C 346.93479,244.38506 342.03373,245 338.941,245 c -9.13925,0 -13.897,2.02846 -23.4264,9.9878 -13.67974,11.42589 -16.78546,16.53294 -18.25111,30.0122 -0.50833,4.675 -1.72742,10.18873 -2.7091,12.25274 -2.28731,4.80913 -13.53007,16.97396 -18.34675,19.85145 -2.0392,1.21822 -6.05376,3.98523 -8.92125,6.14891 -6.73187,5.07958 -14.932,7.57083 -28.70298,8.72016 -27.8826,2.32707 -36.46497,9.78219 -38.59618,33.52674 -1.7107,19.05962 -3.99068,24.3335 -13.1696,30.46294 -6.89783,4.6062 -11.24937,6.02369 -18.51601,6.03148 -7.02447,0.008 -19.58975,4.14262 -26.30162,8.65554 -14.60273,9.81859 -19.21754,15.81294 -24.12987,31.34316 C 115.5,449.48624 115.5,449.48624 106.5,454.35665 101.55,457.03537 92.70012,462.10096 86.833599,465.61353 80.967079,469.12609 75.74429,472 75.227401,472 c -0.516888,0 -2.927799,1.51795 -5.35758,3.37323 C 64.335099,479.5993 45.911975,490.5443 36,495.49495 c -4.125,2.06028 -9.525,5.17811 -12,6.9285 -7.874742,5.56926 -12.752415,6.7663 -17.75,4.35606 z M 257.34268,157.88973 C 266.21818,153.84578 261.29986,141 250.87602,141 c -4.43324,0 -9.31533,5.09383 -8.41039,8.77517 1.88331,7.66138 8.25,11.13404 14.87705,8.11456 z m -24.30421,-9.96162 c 1.48132,-2.76786 -0.41504,-8.29256 -3.74572,-10.91247 -6.98918,-5.49769 -12.271,1.58728 -7.28269,9.76892 3.34781,5.49097 8.42026,6.01694 11.02841,1.14355 z m 41.13279,-9.5831 c 2.32527,-2.10434 2.53836,-10.49254 0.32282,-12.70807 -3.90047,-3.90047 -10.27612,-2.35868 -11.6474,2.81663 -2.06649,7.79907 5.92431,14.77862 11.32458,9.89144 z m -30.41045,-9.53183 c 0.79411,-1.65685 2.40211,-2.90969 4.25761,-3.31723 5.55276,-1.21959 3.94182,-9.98915 -2.21582,-12.06241 -2.75116,-0.92631 -3.39879,-1.73406 -3.90951,-4.87604 C 240.5732,100.43735 234,101.54151 234,109.88337 c 0,2.27866 -0.86716,3.67626 -3.5512,5.72348 -4.84943,3.69884 -4.50102,7.16086 0.97951,9.7331 2.16058,1.01404 4.79898,2.95058 5.86313,4.30342 2.37036,3.01343 4.77508,2.70484 6.46937,-0.83019 z m -25.44507,1.03712 c 6.01885,-3.16808 4.38536,-11.86613 -2.87551,-15.31164 -4.70331,-2.23186 -5.96403,-1.05072 -5.86752,5.49717 0.0801,5.43461 1.84419,9.63985 4.32194,10.3027 0.88294,0.23621 1.74743,0.48167 1.92109,0.54547 0.17366,0.0638 1.29866,-0.40137 2.5,-1.0337 z m 48,-18 C 273.36003,108.14247 269.37367,96 261.11211,96 c -4.01256,0 -5.54072,2.856332 -4.72238,8.82677 0.99144,7.23331 4.6326,9.80976 9.92601,7.02353 z M 226.42208,107.82 c 5.05995,-5.91141 4.58782,-10.330618 -1.3672,-12.797267 C 219.42857,92.692236 211,96.576585 211,101.5 c 0,2.7129 8.26731,10.48011 11.17208,10.49626 0.36964,0.002 2.28214,-1.87726 4.25,-4.17626 z m 18.37549,-15.874662 c 0.86497,-7.425719 -13.2912,-12.497054 -16.76512,-6.005973 -1.53653,2.87103 -0.19138,5.081506 4.36939,7.180192 5.99335,2.757909 12.00403,2.188531 12.39573,-1.174219 z M 439.06546,459.91108 c -2.439,-0.47839 -9.16248,-3.17907 -14.94108,-6.00152 -18.99017,-9.27539 -28.06321,-21.62636 -30.37043,-41.34273 -1.12999,-9.65637 -1.12999,-9.65637 -3.07343,-4.44652 C 386.02615,420.59738 375.34414,426 355.32892,426 339.28703,426 340,425.28633 340,441.34405 c 0,17.92105 0.66102,17.20537 -15.6793,16.97594 -11.91304,-0.16727 -19.03863,-1.33682 -22.0707,-3.62256 -2.09431,-1.57881 -1.78561,-91.01897 0.32143,-93.126 1.93743,-1.93743 38.30637,-2.25529 52.92453,-0.46255 21.65437,2.65564 33.53063,13.30822 36.83422,33.03896 1.22059,7.29002 1.22059,7.29002 3.15476,0.90191 8.60672,-28.42608 43.51977,-43.75782 77.40353,-33.99105 17.08832,4.9256 18.32534,6.31291 17.90059,20.07539 -0.34022,11.02364 -1.02728,11.55288 -9.96467,7.67571 -13.74324,-5.96202 -36.48183,-1.90228 -43.07277,7.6902 -5.62034,8.17987 -5.67227,22.87555 -0.10422,29.49281 2.37152,2.81839 12.69337,7.00719 17.26681,7.00719 6.33427,0 5.82373,-5.9624 -0.7447,-8.69705 -4.91527,-2.04638 -5.13888,-2.55997 -5.13888,-11.80295 0,-11.61196 -1.09303,-11 19.64723,-11 23.30784,0 22.28239,-1.40653 22.30569,30.59501 0.0193,26.5473 0.56442,25.262 -11.6356,27.43645 -8.63291,1.53867 -33.19315,1.77012 -40.28249,0.37962 z M 353.75,400.56574 c 4.6834,-5.09608 3.93126,-14.93913 -1.2948,-16.94456 -3.59934,-1.38119 -11.3605,-0.66827 -12.28886,1.12882 -1.09526,2.12019 -2.19743,18.87725 -1.30239,19.80106 2.00043,2.06471 11.71651,-0.53649 14.88605,-3.98532 z M 233.5,457.68918 c -14.53369,-4.86948 -14.5,-4.8258 -14.5,-18.80235 0,-11.92882 0.42187,-12.31695 9.13674,-8.40595 8.32691,3.73689 20.27436,4.64621 23.76401,1.80868 4.2502,-3.45596 2.37977,-6.47529 -7.1058,-11.4705 -36.55457,-19.25005 -34.61653,-56.28515 3.23753,-61.8678 9.45634,-1.39461 19.26741,0.44581 29.66908,5.56551 10.3075,5.07334 11.29844,6.65523 11.29844,18.0363 0,13.99176 -1.01744,14.88547 -10.71541,9.41227 -9.82185,-5.54311 -20.30419,-5.92585 -20.26928,-0.74009 0.0225,3.3486 0.56564,3.86573 11.48469,10.93552 16.41605,10.62897 20.98176,17.53114 20.31456,30.71038 -0.61646,12.17693 -5.19036,19.11765 -15.80847,23.98879 -8.29051,3.80333 -30.28556,4.25361 -40.50609,0.82924 z M 41.250496,271.48341 C 21.597067,267.21405 5.2662768,251.70504 1.384839,233.62382 c -6.3618886,-29.63611 9.292634,-56.02317 36.30248,-61.19101 27.646108,-5.28957 51.622056,4.93533 65.128881,27.77519 13.47082,22.77899 4.69183,56.93316 -17.456685,67.9143 -9.636602,4.77779 -30.329086,6.35455 -44.109019,3.36111 z M 57.6849,239.93339 C 74.014018,233.74645 72.448462,203 55.804317,203 41.621194,203 32.473176,219.59925 39.25,233.03811 c 3.466849,6.87498 11.026105,9.70239 18.4349,6.89528 z M 160,272.43039 C 139.83142,268.93885 126.15218,260.15735 119.37193,246.34888 116.5,240.5 116.5,240.5 116.5,207 c 0,-33.5 0,-33.5 16.70199,-33.77396 16.48182,-0.27035 16.71796,-0.24399 17.91335,2 0.66624,1.25068 1.92534,2.80125 2.798,3.44571 1.38172,1.02039 1.59052,4.77781 1.61654,29.08958 0.0268,25.00761 0.21464,28.19981 1.8023,30.62289 4.2914,6.5495 16.25646,6.10936 22.66782,-0.83385 2.5,-2.70738 2.5,-2.70738 3.03476,-32.37888 0.29412,-16.31932 0.85713,-30.19183 1.25112,-30.82781 1.09784,-1.7721 8.98801,-2.32145 22.21412,-1.54665 16.60756,0.97289 15.63408,-1.52527 15.27653,39.20297 -0.27653,31.5 -0.27653,31.5 -3.08268,37.21444 -4.74662,9.66601 -14.74515,17.15595 -27.65625,20.7174 -7.17107,1.9781 -25.51428,3.45474 -31.0376,2.49855 z"
         id="path595" />
      <path
         style="fill:#252013"
         d="m 6.3094679,505.36408 c -1.3485096,-3.51416 3.5006894,-7.58824 6.6735071,-5.60679 4.131336,2.58007 6.2245,1.14905 3.859204,-2.63839 -2.647997,-4.24012 3.3964,-9.50305 7.686067,-6.69235 3.41418,2.23706 4.822348,1.12133 4.111711,-3.25781 C 27.711268,481.4459 32.584083,477.48582 35,482 c 2.252233,4.20833 4.825092,2.48403 4.351931,-2.91663 -0.474838,-5.4198 0.509435,-6.76312 3.703096,-5.05392 1.939207,1.03783 2.009746,0.9601 0.940963,-1.03694 C 41.811128,468.91006 48.029883,464.92123 51,468.5 c 3.008317,3.6248 7.69404,0.74281 5.545972,-3.4111 -2.094163,-4.04966 1.081859,-12.00741 4.8187,-12.07359 0.475569,-0.008 2.998103,1.14585 5.60563,2.56504 4.663538,2.53822 10.034033,3.00017 10.691444,0.91965 0.17379,-0.55 -1.460009,-1.74597 -3.630666,-2.65771 -5.620741,-2.36088 -6.385815,-5.94909 -2.167812,-10.1671 3.129182,-3.12918 3.129182,-3.12918 6.037244,0.0547 3.264239,3.57389 7.507027,5.00106 13.165347,4.42851 C 92.746185,447.98842 97,441.21689 97,438.71205 c 0,-1.74325 -5.967562,-5.85013 -7.302125,-5.02533 -0.878844,0.54316 -0.557626,3.68162 0.825267,8.06328 0.530344,1.68038 0.312091,2.25 -0.862102,2.25 -0.864722,0 -3.111351,-1.0125 -4.992508,-2.25 -1.881158,-1.2375 -4.263642,-2.75527 -5.294409,-3.37282 -1.773529,-1.06256 -1.698957,-1.35778 1.389312,-5.5 5.53195,-7.41989 7.108976,-11.30308 8.219403,-20.23907 1.306273,-10.51203 1.449295,-10.90845 6.183079,-17.13811 11.445113,-15.06176 23.976023,-19.03326 33.584083,-10.644 3.75954,3.28263 0.98944,4.8917 -4.1077,2.38604 -5.65088,-2.77786 -10.27754,1.13538 -5.8923,4.98373 2.63231,2.31003 19.22685,1.69542 22.99669,-0.85173 3.52401,-2.38104 13.44588,-7.32322 14.75331,-7.34876 3.827,-0.0747 13.59027,-5.56412 14.1115,-7.93415 0.31342,-1.42512 1.53325,-4.48943 2.71072,-6.80958 3.89406,-7.67301 -0.18399,-7.74061 -10.62641,-0.17615 -2.19774,1.59203 -4.58771,2.8946 -5.31105,2.8946 -0.72334,0 -2.98338,1.4625 -5.0223,3.25 -2.12998,1.86733 -4.80377,3.25 -6.2848,3.25 -2.04411,0 -2.64112,0.54814 -2.88426,2.64817 -0.35228,3.04276 -3.24654,4.26467 -5.75566,2.42996 -2.72428,-1.99204 -1.24174,-4.80298 3.93944,-7.46931 12.13398,-6.24436 21.00235,-20.954 22.56063,-37.42047 1.47196,-15.55439 7.50932,-27.26258 18.22122,-35.33623 8.07128,-6.08339 9.06071,-6.421 21.65477,-7.38901 16.21389,-1.24625 20.16915,-2.6499 29.43184,-10.44483 9.10432,-7.66165 8.95134,-7.62546 11.19558,-2.64864 2.41602,5.35778 0.45033,9.20592 -6.19314,12.12406 -2.61144,1.14707 -5.42308,2.95955 -6.24808,4.02774 -1.49728,1.93863 -11.71142,5.02687 -21.16143,6.39813 -3.01549,0.43757 -4.89644,1.27738 -5.32701,2.37842 -0.57158,1.46161 -0.99585,1.29098 -3.00371,-1.20798 -3.21524,-4.00164 -10.79963,-2.89824 -11.32305,1.64731 -0.47055,4.08646 4.2224,8.16711 8.29624,7.21381 1.66043,-0.38855 4.81896,-0.80998 7.01896,-0.93652 28.78171,-1.65544 41.82728,-6.30854 52.77527,-18.82389 C 266.6682,287.23939 268.78334,283 265.60699,283 c -1.96712,0 -2.71776,-2.57846 -1.60369,-5.50868 0.64667,-1.70087 1.70941,-2.49132 3.3495,-2.49132 3.3193,0 5.35126,-2.50661 3.06784,-3.78447 -1.54781,-0.8662 -1.51034,-1.12583 0.44455,-3.08072 1.17415,-1.17415 2.13481,-2.75471 2.13481,-3.51237 0,-0.75765 0.61648,-1.88918 1.36995,-2.51451 0.75347,-0.62532 2.37995,-4.16792 3.61441,-7.87244 3.08854,-9.26847 9.74981,-21.93039 14.0652,-26.73549 1.97579,-2.2 4.61272,-6.025 5.85985,-8.5 1.24713,-2.475 4.2527,-6.34093 6.67905,-8.59096 6.17223,-5.7237 6.21642,-9.97862 0.16154,-15.55238 -5.51829,-5.07981 -7.44491,-5.47369 -13.67157,-2.79505 -7.59439,3.26701 -8.19184,5.1889 -3.11455,10.01881 C 292.08421,206 292.08421,206 289.093,206 c -2.24338,0 -3.65865,-0.87504 -5.6608,-3.5 -4.39016,-5.7558 -7.00197,-4.89031 -7.78267,2.57897 -0.72162,6.90416 -0.41794,7.68598 5.82764,15.00286 5.49157,6.43354 5.52396,6.90745 0.6886,10.07325 -3.83422,2.51034 -3.83422,2.51034 -6.47743,-6.57237 -1.45376,-4.99549 -2.76586,-10.20311 -2.91577,-11.57249 -0.60885,-5.56152 -5.94547,-2.79556 -7.78469,4.03478 -1.11041,4.12375 0.054,11.2448 2.03929,12.47179 2.31311,1.42958 1.01696,4.51834 -1.80579,4.30326 C 261.65765,232.5485 260,233.6012 260,236.13594 c 0,2.66985 5.27913,7.86406 7.99263,7.86406 1.65399,0 2.07315,0.51624 1.82692,2.25 -0.28299,1.9926 -0.81841,2.2179 -4.68022,1.96941 -7.45565,-0.47975 -9.82278,5.43804 -4.63933,11.59822 3.61549,4.29677 2.55231,8.27318 -1.31301,4.91082 -0.92785,-0.80711 -3.03699,-1.90766 -4.68699,-2.44566 -3,-0.97818 -3,-0.97818 -2.6791,-9.38049 0.1765,-4.62126 1.13717,-12.0023 2.13483,-16.4023 0.99766,-4.4 2.12276,-10.25 2.50022,-13 0.42789,-3.11736 2.23252,-7.62584 4.79281,-11.97383 2.25858,-3.83561 5.0941,-10.17474 6.30115,-14.08696 2.35562,-7.63487 10.14599,-19.25255 16.8343,-25.10478 4.66512,-4.08194 4.20371,-5.00845 -5.31365,-10.66978 -8.25831,-4.9124 -11.44127,-5.60786 -14.62943,-3.19645 -3.81924,2.88873 -5.81296,1.95374 -3.24379,-1.52124 6.15895,-8.33043 -1.76807,-20.0284 -11.85628,-17.49642 -8.71934,2.18841 -12.25982,13.78193 -5.88367,19.26646 3.08561,2.65414 1.79759,2.98334 -2.6579,0.67931 -2.03521,-1.05245 -4.35267,-1.40356 -6.74206,-1.02148 -8.29561,1.32652 -17.37931,-5.34677 -22.34987,-16.41919 -1.34702,-3.0006 -3.86784,-6.78747 -5.60185,-8.41525 -6.29686,-5.91116 -7.86494,-17.46715 -3.10571,-22.88761 3.45755,-3.93793 3.59883,-4.83046 1.36357,-8.61446 C 200.4764,95.457874 205.36748,87 213.06004,87 c 4.64062,0 5.05477,-0.221607 7.42197,-3.971505 3.35206,-5.310005 7.00658,-7.041147 14.71833,-6.972053 10.09955,0.09049 12.83269,1.480218 16.07804,8.17526 2.77838,5.731701 2.77838,5.731701 8.5,5.153157 7.01367,-0.70919 10.94702,1.527155 16.05352,9.127388 3.41161,5.077653 3.43664,5.290503 1.64501,13.987753 -0.5091,2.47136 7.4e-4,3.72066 2.89326,7.0897 5.44998,6.34782 5.71689,14.30658 0.63405,18.90648 -2.99571,2.71108 -2.6244,7.13105 0.74578,8.87765 1.5125,0.78386 4.775,3.19187 7.25,5.35114 2.475,2.15927 7.21813,5.75717 10.54029,7.99534 3.32215,2.23816 6.63975,4.7917 7.37244,5.67454 1.8731,2.25694 3.36896,2.00697 6.16296,-1.0299 1.33337,-1.44928 4.69232,-3.65182 7.46433,-4.89453 5.78174,-2.59199 6.75619,-3.59348 8.3673,-8.5995 1.37026,-4.25763 2.99251,-5.87173 9.09268,-9.047 3.41009,-1.77502 5.1055,-3.55112 7,-7.33313 2.23373,-4.45923 3.40183,-5.47008 10.96724,-9.49079 7.87586,-4.18571 8.58189,-4.82333 10.10883,-9.1294 2.38359,-6.72192 4.22714,-8.95398 10.63556,-12.87692 4.52631,-2.77079 5.94396,-4.262 6.7581,-7.108754 1.48521,-5.193201 3.12532,-6.711335 9.13936,-8.459663 C 397.94793,86.87322 402,83.326748 402,80.206103 c 0,-0.838298 2.07843,-3.432381 4.61873,-5.764628 4.32355,-3.969457 4.66097,-4.648615 5.27979,-10.62735 0.44433,-4.29292 1.58193,-7.958235 3.46981,-11.179667 3.15931,-5.390952 3.02104,-7.561789 -0.85768,-13.465378 -7.38435,-11.239338 -5.07685,-22.778607 5.64928,-28.250671 15.51052,-7.9128767 32.02286,-10.50993244 38.93233,-6.1232647 3.42141,2.1721783 6.47502,3.6899439 10.65774,5.2973247 1.74368,0.670079 2.25,1.65709 2.25,4.386092 0,2.188106 0.75727,4.278705 2,5.521439 2.56684,2.566838 2.55544,2.610723 -1,3.850155 -2.62803,0.916137 -2.99831,1.517216 -2.98635,4.847825 0.0359,9.984599 3.22969,11.076369 7.94755,2.716773 3.4811,-6.168171 3.501,-6.171206 10.67769,-1.62883 5.12732,3.245256 5.13318,3.267624 1.41175,5.384872 -2.74244,1.560273 -2.86077,1.871957 -1.78884,4.711835 1.04713,2.77416 0.88855,3.305229 -1.80697,6.051427 C 482.83939,49.617475 481,49.808313 481,46.5 481,45.125 480.59814,44 480.10699,44 478.88583,44 478,46.570119 478,50.113172 c 0,3.842178 -2.44286,4.758861 -5.36533,2.013342 C 468.38644,48.135513 463,50.041195 463,55.535184 463,58.575776 462.69006,59 460.46862,59 c -3.43704,0 -4.05988,2.289467 -1.69339,6.224616 1.5473,2.572941 2.10123,5.878836 2.58287,15.414877 0.67904,13.444486 0.46221,14.036291 -5.59694,15.275519 -3.60459,0.737217 -4.91793,2.805669 -6.72083,10.584988 -1.44834,6.24943 -4.92614,9.96919 -11.30005,12.08627 -3.87185,1.28602 -5.22123,2.32055 -6.25551,4.79593 -1.68385,4.03003 -7.94223,7.6178 -13.28822,7.6178 -3.81816,0 -4.11792,0.22453 -5.67384,4.25 -2.86603,7.41495 -7.00541,11.01641 -14.02271,12.20043 -3.15602,0.53252 -5.27127,1.98041 -10.02514,6.86225 -3.31382,3.40302 -7.93554,7.68297 -10.27048,9.51098 -2.33494,1.82801 -5.38474,5.57215 -6.77734,8.32032 -2.07778,4.10031 -3.44618,5.42021 -7.62809,7.35771 -6.01777,2.78807 -6.76336,3.75806 -6.78364,8.82523 -0.0157,3.93456 -0.72333,4.86961 -9.00749,11.903 -3.82044,3.24362 -3.79717,3.29876 6.99218,16.56842 3.575,4.39684 9.82799,12.56128 13.89554,18.14319 C 376.98846,246.04749 379.11233,248 383.10006,248 c 3.47011,0 5.39994,2.47194 5.39994,6.91684 0,3.5614 0.0304,3.58643 5,4.12112 2.75,0.29588 6.04268,1.11536 7.31706,1.82107 5.42809,3.0059 8.23073,-1.91275 5.94961,-10.4416 -1.22231,-4.5701 -1.20431,-4.6372 2.01578,-7.51436 6.87376,-6.1417 10.76497,-2.74258 6.84916,5.98302 -5.61704,12.51643 -0.77522,18.75565 8.23671,10.61391 4.43521,-4.00695 5.64692,-4.27429 7.0965,-1.56574 3.07783,5.75098 -1.0182,11.06574 -8.52825,11.06574 -6.44933,0 -7.15058,1.25313 -7.2191,12.9005 -0.0325,5.51878 -0.34624,10.49884 -0.69727,11.06682 -2.11285,3.41866 -12.75554,-0.91237 -15.3139,-6.23197 -0.71153,-1.47949 -3.45888,-4.5157 -6.10523,-6.74714 -2.64634,-2.23143 -6.22929,-6.03134 -7.96211,-8.44424 -2.39107,-3.3295 -4.3258,-4.77744 -8.02565,-6.00634 -4.63057,-1.53802 -4.98305,-1.91533 -7.02763,-7.5228 -3.25009,-8.91368 -11.67446,-17.51805 -16.24295,-16.59001 -1.8385,0.37347 -7.39273,1.08256 -12.34273,1.57574 -13.55056,1.35009 -16.11303,2.3769 -26.2693,10.52637 -5.50816,4.4198 -10.81967,7.82385 -13.21388,8.46854 -5.99793,1.61508 -7.1145,4.56089 -6.92349,18.26608 0.0861,6.18115 -0.30447,12.38649 -0.86802,13.78965 -3.03571,7.55845 -13.86142,19.70544 -20.63391,23.15228 -2.25027,1.14527 -5.78073,3.52524 -7.84546,5.28882 -4.75959,4.06537 -11.83331,6.38806 -23.24594,7.63293 -15.43276,1.68337 -20.41551,2.68947 -26.01448,5.25277 C 210.12395,338.29042 201,346.43576 201,349.20258 201,352.23995 199.10701,355 197.02383,355 c -2.85015,0 -3.12668,1.296 -0.97348,4.56238 2.49314,3.78208 2.47391,7.09326 -0.0504,8.66969 -2.41285,1.50686 -2.61634,4.31744 -0.37485,5.17758 2.00566,0.76964 1.28289,6.74916 -1.60492,13.27751 -3.47824,7.86316 -16.37597,14.2781 -28.81945,14.33393 -12.27052,0.0551 -37.75505,15.17264 -42.70078,25.33037 -1.32053,2.71216 -2.84933,4.30573 -4.5,4.69064 -1.96703,0.45869 -2.42427,1.10261 -2.14479,3.02044 1.7157,11.77304 0.68345,13.30099 -14.67844,21.72719 -7.099648,3.89426 -15.738591,8.90967 -19.197648,11.14537 -3.459057,2.23569 -6.721639,4.0649 -7.250181,4.0649 -0.528543,0 -3.046277,1.52053 -5.594964,3.37895 -5.935367,4.32787 -24.545583,15.32213 -33.776946,19.95422 -3.928633,1.97129 -10.066363,5.62777 -13.639399,8.1255 -7.140008,4.99122 -14.1038682,6.30435 -15.4081641,2.90541 z M 346.82424,189.70083 c 0.6281,-3.3106 -8.56952,-12.63728 -19.63924,-19.91482 -2.69332,-1.77066 -6.185,-0.32956 -6.185,2.55271 0,1.12797 15.89187,16.90302 18.7333,18.59559 2.63261,1.56819 6.69342,0.8618 7.09094,-1.23348 z M 361.8,173.8 c 3.42727,-3.42727 1.18751,-7.2365 -10.62878,-18.07665 -7.59243,-6.96522 -10.16616,-7.94289 -13.34248,-5.06836 -3.53314,3.19744 -2.34574,6.97615 4.42126,14.06996 9.21959,9.66485 15.87212,12.75293 19.55,9.07505 z m 15.45,-16.95343 C 383.22009,149.79115 370.31424,132 359.22609,132 c -5.87819,0 -7.72661,8.28046 -3.36051,15.05422 7.24254,11.2364 16.55438,15.50048 21.38442,9.79235 z M 232.36514,150.92742 C 238.44005,146.1489 232.77904,134 224.47749,134 220.39599,134 219,135.59688 219,140.26574 c 0,9.64893 7.27489,15.45228 13.36514,10.66168 z m 42.20752,-11.23626 C 281.21618,133.97665 277.90413,122 269.68031,122 c -8.69267,0 -12.23791,10.87429 -5.57455,17.09879 3.74857,3.5017 6.87866,3.67884 10.4669,0.59237 z M 401.75,139.40922 c 4.29507,-2.77811 2.16724,-10.37069 -5.2041,-18.56939 -8.11819,-9.02938 -12.31861,-11.04297 -17.47438,-8.37682 -6.53892,3.38141 -4.55449,14.42657 3.16811,17.6334 1.5068,0.6257 3.75879,2.98518 5.00444,5.24329 3.61737,6.55759 8.52897,7.9355 14.50593,4.06952 z M 244.79761,129.75 c 0.90956,-1.90716 2.07089,-2.75 3.78918,-2.75 3.14293,0 4.33273,-2.97156 3.34735,-8.36016 C 251.17039,114.46322 248.90513,112 245.82792,112 c -1.68151,0 -2.25496,-1.21874 -3.0487,-6.47934 -0.38176,-2.53017 -5.21641,-4.36425 -7.58199,-2.87631 -0.9682,0.609 -1.95152,2.92766 -2.28923,5.39801 -0.44378,3.24628 -1.40068,5.00557 -3.82208,7.02705 -4.82186,4.02547 -4.17498,8.71205 1.56049,11.30552 2.28052,1.03122 4.64626,2.97199 5.25718,4.31283 1.60004,3.51169 7.04584,2.9375 8.89402,-0.93776 z m -23.6037,-0.79006 c 4.01295,-4.01295 3.36486,-7.98966 -2.15282,-13.20994 -7.12261,-6.7387 -11.66296,-4.26247 -10.82012,5.9011 0.80377,9.6924 7.06299,13.21878 12.97294,7.30884 z m 197.8731,-5.81312 c 2.28859,-1.85318 2.28859,-1.85318 0.31033,-5.25 -1.08803,-1.86825 -3.30554,-4.03202 -4.92779,-4.80838 -4.86601,-2.32871 -13.87396,-10.94496 -15.0324,-14.378723 -1.45621,-4.316417 -6.78115,-5.199691 -8.50732,-1.411152 -1.7364,3.810975 1.21128,8.330365 15.94791,24.451435 3.48802,3.8157 8.51223,4.39051 12.20927,1.39682 z M 269.25,110.91222 c 3.24798,-3.47684 3.45415,-6.24511 0.79048,-10.61367 -6.61359,-10.84666 -17.65509,-5.925667 -14.95485,6.6651 1.82665,8.51738 8.22901,10.30215 14.16437,3.94857 z M 227.42208,108.82 c 5.07151,-5.92493 4.8771,-11.579686 -0.4936,-14.356985 -10.11701,-5.23171 -21.22458,3.805664 -14.76718,12.014915 5.69122,7.23522 10.44761,7.96518 15.26078,2.34207 z m 210.5835,1.44578 c 4.21053,-5.35282 -0.85638,-14.157161 -10.24944,-17.809594 -4.12634,-1.6045 -5.61915,-2.808927 -6.94495,-5.603334 -2.95027,-6.218321 -9.82989,-7.564074 -11.8262,-2.313378 -2.52953,6.653164 0.28392,12.929612 7.72584,17.235406 2.59048,1.49882 6.75278,4.62719 9.24957,6.95194 5.48103,5.10339 8.89799,5.53996 12.04518,1.53896 z M 245.98922,94.512986 c 2.81987,-3.39773 -1.97435,-10.89335 -8.00627,-12.517578 -10.53864,-2.837761 -16.50754,7.039501 -7.21796,11.944194 4.58922,2.423008 13.41336,2.755348 15.22423,0.573384 z m 208.18204,-5.167974 c 3.24878,-2.940101 1.08304,-10.504363 -3.41029,-11.911141 -1.24353,-0.389326 -4.17875,-2.021465 -6.52269,-3.626974 -2.34395,-1.60551 -5.71895,-3.41505 -7.5,-4.021199 -1.78106,-0.60615 -4.71644,-2.380902 -6.52308,-3.943894 C 425.02139,61.348437 420,62.8633 420,68.923545 c 0,5.393 3.80246,9.014376 16.5,15.714227 12.82115,6.765072 14.81152,7.295265 17.67126,4.70724 z m 8,-57 C 465.90267,28.96813 462.27066,21 457,21 c -2.01348,0 -7.00395,4.069078 -6.99626,5.704545 0.0263,5.596326 8.08721,9.333101 12.16752,5.640467 z M 422.29291,20.15415 c 2.8639,-2.115217 7.80648,-4.872309 10.98352,-6.126871 13.51592,-5.3372217 13.7744,-9.270892 0.3009,-4.5791732 -7.85206,2.7342282 -10.25229,4.1055502 -14.49389,8.2807772 -7.67962,7.559433 -5.73329,9.030197 3.20947,2.425267 z M 435.5,457.19217 c -34.98195,-10.46503 -50.6645,-43.16384 -34.42604,-71.77981 11.54546,-20.34582 41.74821,-30.8287 68.78176,-23.87303 17.62983,4.53612 18.14428,5.04439 18.14428,17.92631 0,10.24156 -0.63064,10.81245 -8.26985,7.48642 -14.21583,-6.18941 -33.74498,-3.26721 -43.3125,6.48097 C 421.41204,408.72198 432.52198,434 454.24724,434 c 8.79642,0 9.11647,-9.77118 0.37377,-11.41132 -4.14791,-0.77815 -4.62536,-1.85838 -4.6057,-10.42047 0.0228,-9.92304 -0.51849,-9.60985 17.31909,-10.02091 17.80149,-0.41022 18.54165,-0.1742 21.01392,6.70095 2.41755,6.72297 2.139,43.13282 -0.34832,45.53015 -4.42454,4.26446 -41.08309,6.2292 -52.5,2.81377 z m 29.20011,-7.77747 c 0.41482,-1.26194 -4.80759,-3.64185 -12.85402,-5.85771 -7.27768,-2.00415 -9.4071,-1.9392 -14.66598,0.44737 -4.68504,2.12615 -4.77216,3.99564 -0.18619,3.99564 1.58173,0 3.99532,0.42561 5.36352,0.9458 1.84908,0.70302 2.79564,0.57467 3.68754,-0.5 1.66344,-2.00432 6.77851,-1.73621 10.95502,0.57421 3.68847,2.04044 7.1016,2.21539 7.70011,0.39469 z m -31.90102,-9.13134 c 2.71891,-1.11975 0.57668,-3.81687 -4.2457,-5.34545 -6.0016,-1.90236 -6.6641,-3.31218 -2.55498,-5.43709 7.37654,-3.81456 1.04821,-6.81912 -8.51013,-4.04044 -6.88091,2.00034 -6.84739,2.48626 0.56874,8.24541 4.86157,3.77535 5.95068,5.1274 5.51821,6.8505 -0.78545,3.12949 0.22888,3.55704 4.30179,1.81325 1.99264,-0.85314 4.20757,-1.79192 4.92207,-2.08618 z m 46.59392,-18.86515 c 1.73478,-4.52076 0.75751,-6.70363 -2.64301,-5.9035 -4.2712,1.00498 -6.51929,1.02977 -10.75,0.11851 -3.5,-0.75387 -3.5,-0.75387 0.71128,3.30645 4.6495,4.48285 11.40589,5.80333 12.68173,2.47854 z m -64.96444,-15.98964 c 2.15543,-2.15542 1.97051,-6.10576 -0.42857,-9.1557 -1.1,-1.39842 -2,-3.52089 -2,-4.7166 0,-1.19571 -0.69813,-3.04752 -1.5514,-4.11514 -1.46539,-1.83351 -1.52778,-1.74709 -1.12539,1.55887 0.2343,1.925 1.00604,4.89614 1.71497,6.60254 1.90191,4.57786 0.77906,6.39746 -3.94778,6.39746 -6.53628,0 -6.34051,2.46437 0.32231,4.05722 4.69888,1.12333 5.31949,1.06772 7.01586,-0.62865 z m -180.10452,50.6308 c -13.76707,-3.70544 -14.28806,-4.35166 -14.3104,-17.75035 -0.0163,-9.74835 0.24032,-9.99495 7.13007,-6.85323 13.17315,6.00694 27.85628,4.9546 27.85628,-1.99645 0,-4.23668 -1.176,-5.44626 -10.80452,-11.11294 -20.87872,-12.28778 -29.0233,-27.74201 -22.12755,-41.98673 8.29022,-17.1253 38.43484,-21.90215 57.55131,-9.11984 6.20622,4.14983 7.59453,7.92958 6.71859,18.29185 -0.74342,8.79471 -1.08607,8.94614 -9.1871,4.06028 -9.57769,-5.77645 -20.14684,-5.72793 -21.60936,0.0992 -0.92166,3.67219 1.24498,6.26405 9.03549,10.80883 15.14764,8.83674 21.07734,15.74936 22.11236,25.77782 2.41842,23.43223 -22.75754,37.75051 -52.36517,29.78155 z m 30.70958,-4.64 c 0.8435,-0.22924 2.33144,-1.76738 3.30654,-3.41809 1.16002,-1.96375 2.57527,-3.00128 4.09392,-3.00128 2.94916,0 4.81855,-2.23755 4.80647,-5.75308 -0.005,-1.51081 0.61356,-3.96207 1.375,-5.44726 C 280.48604,430.15129 280.47529,422 278.6,422 c -0.77,0 -2.97781,1.57781 -4.90625,3.50625 -1.92844,1.92844 -4.93711,3.79242 -6.68595,4.14219 -4.30842,0.86168 -4.76231,2.79378 -1.35208,5.75551 3.83595,3.33146 1.72039,5.60836 -6.21101,6.68467 -8.37216,1.13613 -13.52613,6.97728 -8.69471,9.85398 1.56321,0.93075 10.08186,0.6187 14.28363,-0.52323 z m -25.5349,-1.60075 c 4.11391,-1.87442 3.00013,-5.16995 -1.99873,-5.91399 -2.2,-0.32745 -5.68275,-0.93914 -7.73944,-1.35931 -4.57644,-0.93493 -6.1007,1.30871 -3.13184,4.60995 3.38575,3.76481 8.24538,4.77048 12.87001,2.66335 z m 25.58686,-26.87354 c 7.59559,-4.87408 7.86351,-5.61794 2.83443,-7.86953 -5.35964,-2.39958 -7.46103,-1.49381 -8.89576,3.83437 -1.97503,7.33468 -0.55437,8.28044 6.06133,4.03516 z m -21.707,-30.43115 c 1.20159,-0.90985 1.68457,-2.16442 1.3402,-3.48129 -0.37635,-1.43916 0.11165,-2.39858 1.62141,-3.18768 1.18789,-0.62087 4.06225,-2.86498 6.38746,-4.98691 3.70083,-3.37728 4.83825,-3.85805 9.12755,-3.85805 5.18386,0 7.83696,-1.75384 6.78805,-4.48727 -1.0872,-2.83319 -7.9503,-1.82703 -15.84575,2.32307 -4.01363,2.10969 -9.50211,4.13528 -12.19662,4.50131 -6.91768,0.93971 -7.68942,1.85578 -7.19405,8.53946 0.22923,3.09289 0.45646,5.73593 0.50497,5.87343 0.32296,0.91553 7.93845,-0.0788 9.46678,-1.23607 z m 64.3226,62.75469 c -3.01777,-0.31392 -4.0123,-0.94756 -4.83718,-3.0819 -1.25364,-3.24368 -0.80228,-88.58545 0.47522,-89.85362 1.17722,-1.16861 48.80657,-0.7107 56.47055,0.54292 18.9577,3.10096 28.72707,13.88356 28.65228,31.62398 -0.0929,22.0307 -7.29597,27.84311 -36.38498,29.36022 -9.02214,0.47054 -14.52075,1.18243 -15.32412,1.98396 -0.83966,0.83774 -1.36327,5.60492 -1.58738,14.45221 -0.18393,7.26117 -0.80153,13.76496 -1.37245,14.45287 -1.00758,1.21406 -16.45747,1.52159 -26.09194,0.51936 z m 20.85768,-2.68941 c 1.6947,-1.24042 1.95089,-2.73213 2.01799,-11.75 0.0625,-8.40226 0.48214,-11.19534 2.24936,-14.97198 2.55923,-5.46924 3.33564,-5.85723 11.72077,-5.85723 5.64022,0 6.77393,-0.34287 9.73754,-2.94496 3.35412,-2.94496 3.35412,-2.94496 10.64134,-1.86338 8.19932,1.21696 9.03172,0.76789 9.05882,-4.88709 0.0118,-2.47252 0.62485,-3.49057 2.70963,-4.5 3.1459,-1.52322 8.11684,-12.39341 6.43611,-14.07414 -1.73729,-1.73729 -6.16979,0.22624 -11.26093,4.98841 -4.95773,4.63737 -4.95773,4.63737 -7.03578,2.55933 -2.44225,-2.44225 -0.83098,-5.6194 4.44678,-8.76832 7.52019,-4.48684 8.79932,-8.80018 2.4695,-8.32733 -3.39106,0.25332 -4.16525,0.0143 -3.83068,-1.18252 0.96027,-3.43508 1.22961,-9.0002 0.43572,-9.00278 -0.47027,-0.002 -2.65504,0.87488 -4.85504,1.94757 -2.2,1.07269 -4.79771,2.18873 -5.77268,2.4801 -3.04515,0.91001 -2.98398,3.23811 0.20057,7.63426 2.78491,3.84445 4.21454,9.95779 2.32211,9.92973 -0.4125,-0.006 -1.65,-2.32497 -2.75,-5.153 C 354.9385,382.25039 351.08572,380 342.37259,380 334.89268,380 335,379.80408 335,393.45934 c 0,12.4821 0.34667,12.9426 9.31348,12.37164 4.61154,-0.29364 7.09978,-1.01089 9.17798,-2.6456 3.63862,-2.86214 4.71195,-1.76246 4.31903,4.42511 C 357.5,412.5 357.5,412.5 353,412.57314 c -2.475,0.0402 -6.10386,0.41212 -8.06413,0.82642 -2.70296,0.57127 -3.88025,0.37239 -4.87245,-0.82314 -1.91131,-2.30299 -3.79944,-1.95356 -8.17659,1.51321 -3.90098,3.08963 -3.90098,3.08963 -4.51442,0.0224 -0.33739,-1.68696 -1.22888,-3.57798 -1.98109,-4.20226 -1.4759,-1.22489 -1.67412,-0.92055 -2.82685,4.3402 -0.76084,3.47231 -5.36446,3.90116 -7.37191,0.68674 -2.56957,-4.11455 -5.68073,-2.14196 -5.77811,3.66352 -0.0471,2.80515 -0.39294,5.9013 -0.76864,6.88035 -0.42504,1.10766 0.26833,3.40354 1.83556,6.07781 2.81885,4.81001 3.28938,10.55702 1.01863,12.44158 -3.48861,2.89529 -0.55455,6.15473 7.5,8.33172 7.10536,1.92045 7.26748,1.92465 9.55887,0.24749 z M 328.8,405.8 c 2.51012,-2.51012 1.4586,-7.5142 -1.81907,-8.6568 -2.81994,-0.98304 -2.9789,-1.30369 -2.41,-4.86139 0.93496,-5.84692 -6.07407,-10.63582 -9.92717,-6.78271 -2.53455,2.53454 -1.99326,4.86019 2.35624,10.12369 2.2,2.6623 4,5.4113 4,6.10888 0,3.4729 5.51757,6.35076 7.8,4.06833 z m 2.26574,-25.83518 C 332.12958,379.39547 333,378.10057 333,377.08726 c 0,-3.54773 2.6,-4.49644 6.22176,-2.27023 8.05895,4.95363 16.1014,3.63017 15.58871,-2.56527 -0.27855,-3.36598 -0.56754,-3.71536 -2.81047,-3.39781 -1.375,0.19467 -5.65,0.42846 -9.5,0.51953 -6.13213,0.14505 -15.98391,2.34865 -20.5,4.58534 -2.28434,1.13137 -2.50987,5.77017 -0.30826,6.34063 3.314,0.8587 7.41798,0.7122 9.374,-0.33463 z M 37.112326,268.41945 C -13.949577,254.68718 -10.118124,179.83988 42,172.9389 c 26.691089,-3.53417 47.302354,6.6148 59.01936,29.0611 4.43207,8.49054 4.43742,8.51352 4.8089,20.64986 0.78391,25.61122 -9.820331,41.48519 -30.664486,45.90305 -8.781491,1.86121 -30.923262,1.78355 -38.051448,-0.13346 z M 52.183578,261.25 C 52.5,258.5 52.5,258.5 62.251254,258.5 c 10.314511,0 11.249792,-0.50779 7.998746,-4.34274 -1.6696,-1.96947 -2.122082,-2.00902 -9.848786,-0.86079 -4.454332,0.66194 -8.744079,1.74 -9.532771,2.39569 -0.788691,0.65569 -2.656738,1.65705 -4.151214,2.22525 -3.298588,1.25412 -3.431383,2.46897 -0.494723,4.52589 3.431574,2.40356 5.597086,1.97007 5.961072,-1.1933 z m -13.606125,-2.56296 c 2.68898,-2.31297 2.68898,-2.31297 0.228329,-6.75 -3.80719,-6.86511 -8.00926,-7.01183 -7.231066,-0.25248 1.194203,10.37277 2.068338,11.24687 7.002737,7.00248 z M 20.5,249 c 2.157586,-1.1 5.002816,-2 6.322733,-2 2.697401,0 2.521048,-4.50073 -0.397496,-10.14458 C 22.949788,230.13465 13,236.18272 13,245.01608 c 0,5.67681 2.046867,6.76409 7.5,3.98392 z m 41.263438,-9.65673 C 79.575918,226.1483 67.850611,194.28369 47.637467,200.95463 30.571926,206.58677 29.439135,234.51951 46,241.33186 c 3.168871,1.30352 12.992158,0.0643 15.763438,-1.98859 z m 23.84703,-20.10858 C 90.38136,216.07826 90.669027,208 86.010536,208 c -4.291765,0 -11.696218,8.98098 -9.343869,11.33333 0.895887,0.89589 7.551536,0.82248 8.943801,-0.0986 z m -6.981006,-16.79193 c 2.462289,-3.75793 -0.478274,-7.4152 -7.191348,-8.9441 C 68.722151,192.88009 64.7,191.23059 62.5,189.83309 c -6.56234,-4.16858 -8.266449,-4.37714 -11.067674,-1.35457 -2.73205,2.94793 -5.526163,2.74824 -8.741939,-0.62477 C 40.405833,185.45749 39,186.28417 39,190.02383 c 0,3.81042 -2.948617,5.39213 -8.606347,4.61665 -4.756366,-0.65193 -5.898132,0.21338 -5.000516,3.78977 1.061465,4.22921 5.579618,5.10241 11.753148,2.27146 13.161694,-6.03546 28.135125,-5.39758 33.676193,1.43464 2.875354,3.54535 5.61431,3.65285 7.806984,0.30641 z m 71.718418,66.13743 C 137.38834,265.43668 125.2641,256.07122 120.22167,245.30897 117.5,239.5 117.5,239.5 117.5,207 c 0,-32.5 0,-32.5 15.63658,-32.77482 15.63658,-0.27481 15.63658,-0.27481 17.65102,3.1394 2.72672,4.62146 3.52105,16.27755 2.41009,35.36627 -1.3585,23.3421 0.39877,28.67109 10.27453,31.15784 9.03135,2.27412 20.34026,-4.38951 20.65975,-12.17349 0.0726,-1.76836 0.41008,-15.3652 0.75,-30.2152 0.61803,-27 0.61803,-27 15.98343,-27.27667 10.90526,-0.19636 15.78828,0.0743 16.82222,0.93238 2.31167,1.91852 1.39567,63.18992 -1.05627,70.65388 -5.81943,17.71494 -39.4692,29.27477 -66.28347,22.7706 z M 177.56387,261.5 c 2.20174,-2.40375 4.08308,-3.5 6.00655,-3.5 1.54037,0 3.76096,-0.90214 4.93464,-2.00476 1.46643,-1.37763 4.45501,-2.29619 9.55376,-2.93642 8.77701,-1.10208 12.51122,-4.03345 10.06152,-7.89835 -0.68808,-1.08559 -1.62548,-0.94341 -4.94485,0.75 -4.79256,2.44498 -6.75612,2.62478 -7.49982,0.68673 -0.89058,-2.32081 1.56302,-4.39825 6.2464,-5.28879 5.45384,-1.03703 6.72559,-3.30841 1.85239,-3.30841 -1.86571,0 -4.26571,0.66069 -5.33333,1.4682 -1.06762,0.8075 -3.30994,1.4825 -4.98292,1.5 -2.26101,0.0236 -4.17542,1.18688 -7.45821,4.5318 -2.42903,2.475 -5.33522,4.50689 -6.45821,4.51531 -4.06201,0.0305 -7.54179,5.30658 -7.54179,11.43503 0,4.50129 1.47428,4.51445 5.56387,0.0497 z m 26.94106,-30.68254 c 4.19615,-3.30069 10.63758,-13.81232 10.28985,-16.79177 -0.58523,-5.01428 -8.96518,-1.99317 -13.29478,4.79297 -7.17106,11.23981 -7.67603,12.54013 -5.25,13.51906 2.71424,1.09522 5.6072,0.56244 8.25493,-1.52026 z m -64.96181,-19.83385 c 2.46498,-0.93719 2.61267,-1.30736 1.89519,-4.75 -0.42797,-2.05349 -0.68607,-5.60991 -0.57356,-7.90317 0.43237,-8.81298 -5.67751,-5.09466 -6.97553,4.24514 -1.27346,9.16307 -0.26735,10.65928 5.6539,8.40803 z m 66.29049,-3.83 c 4.48904,-4.14426 5.9485,-10.53252 2.69177,-11.78224 -3.45317,-1.32511 -12.016,6.53801 -9.67219,8.88182 0.57116,0.57116 0.7816,2.32285 0.46764,3.89264 -0.81063,4.05318 1.41489,3.71412 6.51278,-0.99222 z"
         id="path593" />
    </g>
  </g>
</svg>
