<?xml version="1.0" encoding="UTF-8" standalone="no"?>
<!-- Created with Inkscape (http://www.inkscape.org/) -->

<svg
   version="1.1"
   id="svg23505"
   width="669.26251"
   height="686.71466"
   viewBox="0 0 669.26251 686.71467"
   sodipodi:docname="single_base.png"
   xmlns:inkscape="http://www.inkscape.org/namespaces/inkscape"
   xmlns:sodipodi="http://sodipodi.sourceforge.net/DTD/sodipodi-0.dtd"
   xmlns="http://www.w3.org/2000/svg"
   xmlns:svg="http://www.w3.org/2000/svg">
  <defs
     id="defs23509" />
  <sodipodi:namedview
     id="namedview23507"
     pagecolor="#505050"
     bordercolor="#eeeeee"
     borderopacity="1"
     inkscape:showpageshadow="0"
     inkscape:pageopacity="0"
     inkscape:pagecheckerboard="0"
     inkscape:deskcolor="#505050"
     showgrid="false"
     inkscape:zoom="0.76743189"
     inkscape:cx="-181.12357"
     inkscape:cy="261.26097"
     inkscape:window-width="2556"
     inkscape:window-height="1412"
     inkscape:window-x="0"
     inkscape:window-y="0"
     inkscape:window-maximized="1"
     inkscape:current-layer="g23511" />
  <g
     inkscape:groupmode="layer"
     inkscape:label="Image"
     id="g23511"
     transform="translate(-730.26759,0.87228056)">
    <path
       style="fill:#050505;stroke:none;stroke-width:0.96"
       d="m 1021.29,184.01891 c -5.2128,19.70112 14.9405,36.45888 32.64,24.96 8.8138,20.02176 28.0426,2.5344 42.24,3.00768 8.6093,0.288 15.6086,7.8768 23.04,11.39232 -4.1434,5.83392 -10.9008,9.3408 -14.784,15.36 -6.2093,9.62496 -9.6029,21.22464 -14.3155,31.68 -4.7386,10.51296 -11.0496,19.536 -14.3683,30.72 -7.2077,24.28896 -3.6221,52.35263 -20.7792,72.95615 -6.9898,8.3952 -18.1018,18.65664 -28.873,21.61344 -22.1568,6.08352 -39.82079,-2.58528 -57.31199,17.75136 -5.6256,6.54144 -11.91168,14.60352 -14.2176,23.03904 -5.0736,18.56064 -0.7296,35.20032 -15.1824,50.7792 -7.98528,8.60832 -25.55808,11.37408 -36.168,16.4208 v 1.92 l 24,-4.8 v 0.96 c -4.9152,2.2944 -17.03232,7.63296 -12.3072,14.9616 2.1024,3.26112 7.45248,5.40768 10.3872,8.0784 -12.85344,4.18272 -24.51456,8.49024 -35.52,-1.92 h 22.08 c -5.78592,-18.93024 -30.0336,-12.43488 -41.28,-4.06944 -7.47648,5.56128 -15.70944,14.12736 -18.4464,23.26944 -2.9376,9.81696 -1.26528,19.63488 -6.76032,28.8 -5.69856,9.50496 -19.50893,19.28832 -20.67773,30.72 -0.83913,8.20704 6.57437,11.08512 13.24445,12.48 v 0.96 c -3.1104,0.7104 -6.39744,2.09472 -9.6,1.21056 -5.73744,-1.584 -11.93645,-8.58816 -17.92445,-3.59328 -3.02428,2.52192 -5.21337,7.06656 -4.87036,11.02176 0.19516,2.2512 2.35622,5.67744 0.20515,7.5456 -3.38659,2.94048 -6.74515,-2.45952 -9.96,-2.82432 -6.19709,-0.70272 -4.54205,9.26304 -3.93034,12.55968 -9.69254,-7.52928 -7.69747,5.17056 -7.68,11.52 -3.10915,-2.0976 -7.60608,-6.43104 -11.52,-6.46464 -3.63801,-0.0307 -7.01011,3.936 -9.6,6.0576 -7.40294,6.06432 -23.49033,16.128 -26.7111,25.3632 -1.34041,3.84384 3.40025,7.00704 6.5511,7.93152 11.6064,3.40512 28.83139,-13.22304 38.4,-18.24288 24.4057,-12.8016 47.15232,-28.37952 71.04,-42.07488 10.44576,-5.98752 27.4896,-11.2464 35.14176,-20.6112 5.6496,-6.91392 2.23008,-14.74944 -0.58176,-22.03872 11.8992,-0.0422 17.79744,-15.15264 26.88,-22.18752 10.09248,-7.81728 20.99424,-14.67072 33.6,-17.49408 16.74624,-3.75072 37.39968,-2.08512 47.54016,-18.8784 11.77923,-19.50912 0.23424,-45.25248 17.75423,-62.3616 18.7594,-18.31968 49.7645,-13.176 72.9456,-22.1184 -3.287,-3.7248 -6.7603,-3.82656 -11.52,-3.84 v -0.96 c 6.1834,-1.72032 11.6544,1.61664 17.28,0.19584 13.2202,-3.33888 30.6998,-20.1744 36.8323,-31.87584 7.4995,-14.31168 -0.6614,-30.88896 14.0477,-42.24 v -1.92 l -6.72,-1.92 c 4.0426,-4.85472 10.3632,-3.6432 15.36,-7.26624 8.113,-5.88192 13.5792,-14.12063 23.04,-18.31871 7.2346,-3.21024 15.3725,-2.54784 23.04,-3.4896 5.3472,-0.6576 12.0768,-3.74208 17.2801,-1.55616 12.0105,5.04768 12.4617,20.01695 20.5238,28.50527 4.511,4.75008 11.8531,4.42944 16.5418,9.20928 3.7027,3.77568 5.1609,9.17376 9.1814,12.81216 3.2765,2.9664 7.919,3.80736 10.8778,7.18848 5.0841,5.808 8.1763,14.63712 17.7504,13.69824 12.718,-1.24608 3.7689,-22.94112 6.6259,-30.18048 4.1241,-10.4496 29.8041,-2.61504 21.0883,-21.16128 -0.8419,-1.79232 -2.2147,-4.04159 -3.9984,-5.03903 -5.9798,-3.34464 -10.199,10.09055 -16.9344,8.19455 -11.4317,-3.21888 8.1264,-21.27359 0.5971,-27.40031 -5.0755,-4.12992 -14.1437,1.63392 -15.5971,6.96768 -1.128,4.14048 0.7238,8.31936 0.6202,12.47616 -0.056,2.24063 -0.6116,4.67999 -2.4029,6.20255 -3.24,2.75424 -14.6707,-1.38624 -19.7539,-0.44256 0,-16.73663 -9.2256,-13.24127 -19.1146,-23.09279 -9.5731,-9.5376 -16.3382,-22.02336 -24.7229,-32.5872 -3.3764,-4.2528 -14.5901,-13.2816 -13.7088,-19.16256 0.7334,-4.8864 8.1388,-7.34688 11.064,-10.77408 3.8352,-4.49472 2.0055,-10.44576 5.0659,-15.08256 3.2967,-4.99392 10.2116,-5.51328 14.162,-9.88128 3.2409,-3.58464 4.4371,-8.53152 7.4688,-12.28512 4.0492,-5.0112 10.1971,-6.6528 14.8214,-10.89024 4.3469,-3.98208 6.9466,-9.81024 11.7706,-13.26432 5.1552,-3.69024 12.1459,-2.99136 17.1523,-6.98208 5.4557,-4.3488 5.8665,-12.44256 11.6035,-16.29888 3.9178,-2.63328 9.1507,-0.99552 13.3939,-3.04896 5.5152,-2.66784 6.9792,-8.8272 11.5651,-12.48768 4.4852,-3.57984 10.7117,-3.66912 15.0029,-7.63296 6.8727,-6.34944 4.3335,-15.47712 8.9789,-22.1136 3.7987,-5.42784 12.8275,-2.44032 14.7014,-10.97664 1.6157,-7.35744 -0.9945,-16.32768 -0.1574,-23.999038 0.5107,-4.688928 4.1808,-8.882304 4.2029,-13.44 0.019,-3.987072 -3.48,-7.325088 -1.8663,-11.46 4.0541,-10.388928 15.3984,5.351616 20.0391,2.09856 3.4829,-2.441952 -0.9687,-11.89968 1.4573,-16.55856 0.6048,1.912032 5.7292,11.660352 8.351,6.314016 1.0243,-2.089152 -1.4986,-4.657632 0.1229,-6.608832 2.352,-2.829312 6.3187,-0.463488 8.8061,-4.505184 l -8.64,-2.88 8.64,-10.56 c -7.9815,-0.09456 -6.9245,-4.828513 -12.5357,-8.817792 -4.1818,-2.973312 -9.6317,-4.03728 -12.672,-8.551872 -2.2752,-3.379296 -0.7987,-8.095487 -3.8976,-10.999967 -2.4115,-2.2608003 -5.4307,-1.1852163 -8.1715,-2.4444683 -4.1616,-1.911619 -7.1501,-5.163513 -11.6832,-6.75551 -13.6032,-4.777853 -28.3239,-1.70173405 -41.28,3.847382 -12.9255,5.5360523 -27.4426,15.7804993 -23.1101,31.8022273 1.9507,7.209696 7.8105,13.558464 8.4672,21.12 0.551,6.344928 -4.9421,11.428032 -6.5463,17.28 -1.2662,4.619712 0.1546,10.094016 -2.0227,14.396352 -2.0102,3.973536 -6.2333,6.067968 -8.7571,9.641089 -3.0346,4.296957 -3.8304,9.502077 -8.3923,12.728637 -5.2282,3.69696 -12.3821,3.26304 -16.704,8.4576 -3.0931,3.71808 -4.1991,8.61888 -7.5706,12.19872 -4.3219,4.58976 -10.6425,6.45504 -14.4211,11.712 -3.817,5.3088 -4.8125,12.18624 -9.5789,16.94976 -4.9901,4.98816 -12.5194,5.832 -17.8829,10.29024 -3.9936,3.3216 -5.5392,8.25984 -8.8858,12.0912 -3.4838,3.98784 -8.2233,5.7504 -12.0979,9.16224 -4.3094,3.7968 -5.6064,9.5376 -9.192,13.85088 -3.7546,4.51392 -15.2621,12.41088 -20.7456,14.27328 -3.6816,1.24992 -7.0685,-2.93568 -9.6,-5.00256 -7.0272,-5.73696 -14.3558,-11.69472 -22.08,-16.46688 -3.1037,-1.91808 -8.8608,-3.98112 -9.4454,-8.16096 -0.8247,-5.90208 7.7923,-12.34176 8.3078,-19.1616 0.721,-9.5472 -6.9898,-12.3072 -9.6317,-20.16 -1.3545,-4.02528 1.2067,-8.36544 1.0416,-12.48 -0.2621,-6.48768 -5.807,-12.95904 -10.5715,-16.97856 -6.9043,-5.82432 -16.776,-0.84672 -22.8,-5.53152 -4.2422,-3.29952 -4.7616,-8.99328 -8.159,-12.90624 -4.5677,-5.260797 -14.0765,-6.797758 -20.7418,-6.795838 -13.6522,0.0048 -14.833,10.099198 -24.9744,15.305278 -6.8525,3.5184 -13.0253,-0.52416 -16.8019,8.66784 -3.0192,7.34976 2.5929,13.584 0.6547,20.15904 -1.271,4.3104 -5.4595,6.98304 -6.5002,11.52 -3.19675,13.94208 8.1293,27.2688 20.7418,30.72 M 1335.2101,10.258913 c -16.2749,1.66704 -27.5588,12.368831 -33.6,26.879999 -7.3479,-2.224033 -5.6199,-10.20528 -2.064,-15.345984 4.6848,-6.772319 29.0668,-21.71045735 35.664,-11.534015 m 31.68,5.759999 c -0.01,2.770944 0.6633,7.700064 -2.3367,9.250368 -2.9193,1.508928 -12.0643,-1.953696 -10.6262,-6.083712 1.2835,-3.686688 9.9014,-3.141312 12.9629,-3.166656 m -14.4,14.249664 c 15.336,0.46848 7.7068,20.197824 -2.8455,20.197824 -11.5574,0 -9.4089,-20.572224 2.8455,-20.197824 m 28.8,3.990335 -9.6,10.560001 -0.96,-9.6 0.96,-0.960001 h 9.6 m -77.7591,48.520705 c 8.8733,-1.447968 7.0407,9.70032 11.7763,12.933696 4.7348,3.234241 12.2804,6.775678 17.9828,7.487998 4.6176,0.576 10.2758,-0.99744 14.0217,2.51424 3.2419,3.03744 6.9283,12.90048 1.1962,15.32064 -3.5971,1.51776 -8.2128,-0.53952 -11.3779,-2.19168 -7.0848,-3.69696 -13.7463,-8.06112 -21.12,-11.21568 -4.5332,-1.93824 -10.466,-2.93376 -14.0842,-6.4368 -4.9344,-4.775998 -8.2339,-16.80691 1.6051,-18.412414 m -13.4265,21.259774 c 11.5228,-0.005 18.4684,18.79296 26.11,24.7584 4.2308,3.3024 9.505,1.14144 12.9053,6.3168 4.152,6.31968 0.5309,15.624 -7.3497,16.2048 -15.481,1.13952 -14.234,-16.78464 -23.1408,-24.52608 -4.1962,-3.64704 -12.3716,-4.34016 -15.2314,-9.21984 -2.689,-4.58592 0.9936,-13.5312 6.7066,-13.53408 m -243.8535,4.5216 c 5.1811,-1.13472 11.6582,0.95424 14.6505,5.42016 2.8685,4.28256 2.6467,11.3184 -3.1728,12.81024 -11.1811,2.86656 -28.2144,-14.56608 -11.4777,-18.2304 m -19.201,15.29472 c 18.2688,-3.21408 21.6461,22.03296 4.799,24.4128 -14.5382,2.05344 -20.35,-21.67584 -4.799,-24.4128 m 238.0849,2.14944 c 9.9657,-3.1104 15.4656,22.28736 23.1984,27.28128 4.7049,3.0384 10.5955,-0.70848 14.567,4.07136 2.8301,3.40704 3.191,9.12768 -1.3978,11.04768 -17.832,7.46208 -26.783,-12.91488 -35.5027,-23.74656 -4.3113,-5.35584 -11.7187,-15.26784 -0.8649,-18.65376 m -182.3905,0.83424 c 14.1869,-3.8256 21.5971,19.68768 6.7056,23.89824 -12.168,3.43968 -18.1238,-20.81952 -6.7056,-23.89824 m -12.4944,24.53952 c 5.6112,10.032 -2.3654,8.88096 -5.9405,16.2864 -1.8537,3.84096 -1.0137,9.11424 -6.5366,10.07328 -4.4189,0.76704 -6.1575,-4.37184 -8.8234,-6.83424 -4.416,-4.07808 -15.9859,-7.31904 -9.0029,-15.4368 1.6992,-1.97376 4.1712,-3.07488 5.762,-5.17248 3.1574,-4.1616 1.7539,-14.45376 10.0848,-12.44832 6.8745,1.65504 3.9139,13.04064 14.4566,13.53216 m 176.6353,-9.16512 c 6.6729,-0.97056 5.5449,8.22816 8.8636,11.88096 4.5802,5.04096 11.2061,7.94592 15.6884,13.0656 2.3251,2.65536 2.662,6.19296 4.4707,9.13728 3.9811,6.47904 8.0985,11.62944 -3.0979,13.94016 -14.857,3.06528 -10.1472,-10.75776 -17.4221,-16.2 -6.1056,-4.56672 -12.8266,-1.57056 -17.0179,-10.18272 -3.8362,-7.88256 -1.7645,-20.1456 8.5152,-21.64128 m -227.4731,11.50176 c 12.84,-3.71904 18.9159,17.93856 5.7168,20.94624 -10.104,2.30208 -15.3312,-18.16224 -5.7168,-20.94624 m 74.8388,9.552 c 13.6934,-2.12448 17.2905,21.8976 3.838,24.24576 -13.1558,2.29728 -16.536,-22.27488 -3.838,-24.24576 m 131.5191,10.19136 2.0918,10.35936 13.2682,17.48064 c 6.3619,-2.49792 9.9552,2.78496 6.0076,8.5392 -3.2313,4.70976 -10.3516,5.92224 -15.6076,4.48416 -13.1386,-3.59232 -36.7547,-31.51872 -16.32,-40.23648 3.5376,-1.50912 6.9091,-0.56832 10.56,-0.62688 m -191.9579,6.26592 c 11.7293,-2.3904 21.4071,20.3712 7.6368,22.94112 -11.2742,2.10336 -18.6556,-20.69568 -7.6368,-22.94112 m 32.5988,7.55232 c 15.6057,-3.60288 26.7024,18.10656 9.5952,23.07168 -16.5716,4.81056 -26.4634,-19.17696 -9.5952,-23.07168 m 160.3191,46.66176 c -9.2132,4.82784 -13.1099,0.0739 -16.3201,-8.64 l -3.84,3.84 c -7.6982,-3.2592 -17.4874,-11.44416 -20.9856,-19.2 -2.4941,-5.53248 1.2566,-12.12576 7.5456,-12.24768 5.4403,-0.10464 8.1562,5.39424 11.6198,8.66784 9.3178,8.80512 15.6903,16.38336 21.9803,27.57984 m -24.9601,21.12 c -13.1741,-1.15776 -14.8992,-11.40288 -24.2016,-17.57568 -2.2243,-1.47552 -4.9891,-0.57504 -7.273,-1.8336 -2.7196,-1.4976 -4.3776,-5.43744 -2.3318,-8.1216 3.4752,-4.55808 8.8906,0.91488 11.7264,3.25728 8.3616,6.90816 19.9901,12.69408 22.08,24.2736 M 788.01001,229.56035 c -52.46013,8.1936 -76.34409,72.04224 -40.99181,112.85472 18.77405,21.67391 52.67386,25.54175 79.39181,21.67295 8.5152,-1.2336 16.47744,-3.27936 24,-7.59264 38.32992,-21.97727 31.34016,-77.09855 6.27456,-106.19903 -15.9168,-18.47808 -45.43689,-24.3648 -68.67456,-20.736 m 338.87999,0.53856 c 6.2006,2.71008 13.3546,7.21152 16.32,13.44 -5.4758,-2.39328 -14.8243,-7.29408 -16.32,-13.44 m -238.07999,1.92 c 0,28.52256 -2.05056,56.92992 0.0864,85.44 1.39392,18.5856 17.01792,33.50207 33.5136,40.12031 28.56576,11.4624 67.5408,9.58944 92.15619,-10.04256 7.6214,-6.07775 10.0262,-15.15935 12.0758,-24.31775 4.5053,-20.13504 2.2954,-40.0992 2.328,-60.48 0.013,-8.1024 4.5245,-22.8864 -2.3222,-29.26656 -3.361,-3.13152 -8.8224,-2.41344 -13.0378,-2.41344 h -32.63999 v 52.8 c 0,9.41184 1.35744,19.9152 -2.37984,28.8 -5.3424,12.7008 -25.38336,20.14752 -35.50848,8.4624 -4.56,-5.26176 -3.39168,-12.56064 -3.39168,-19.0224 0,-15.3552 0.96,-30.6768 0.96,-46.08 0,-8.44416 0.86784,-20.08704 -8.64384,-23.99136 -6.02016,-2.47104 -14.70816,-0.96864 -21.11616,-0.96864 -7.4544,0 -14.68512,0.025 -22.08,0.96 m 129.59999,14.4 c -2.6928,7.92096 -9.2803,11.34912 -17.28,11.52 3.0672,-7.18272 9.6749,-10.85184 17.28,-11.52 m 124.8,12.48 -9.6,11.52 -2.88,-22.08 12.48,10.56 m -359.03999,-9.6 17.28,5.76 c -1.44077,8.85312 -27.78393,19.22784 -32.64,9.6 11.05882,-1.63296 13.78359,-5.26848 15.36,-15.36 m 338.87999,0.96 v 11.52 c -14.4557,-0.0394 -13.6368,-10.32 0,-11.52 m -316.79999,10.56 0.96,-3.84 c 8.77373,-1.1808 18.02602,0.10272 25.8816,5.016 2.90688,1.81824 8.60928,8.55168 2.77536,10.68288 -4.27104,1.56 -8.29728,-3.19296 -11.37696,-5.34528 -5.232,-3.65472 -11.90275,-5.96064 -18.24,-6.5136 m 114.24,-1.92 3.84,23.04 -12.48,0.96 c 0.025,-9.18144 0.696,-18.26592 8.64,-24 m 81.59999,20.16 c -1.6416,-5.60736 1.4333,-16.27296 9.4541,-14.33088 6.0624,1.46784 -0.3475,9.5952 -2.8234,11.3232 -2.0256,1.41408 -4.3209,2.20704 -6.6307,3.00768 m 136.32,2.88 c -2.1878,14.86944 -10.5821,20.11872 -18.5741,31.68 -3.4157,4.94112 -3.1238,11.26272 -6.3571,16.32 -3.9226,6.13632 -10.2048,10.43232 -14.4989,16.31999 -4.1654,5.71392 -6.3734,12.67872 -8.9529,19.2 -3.8391,9.70752 -1.634,29.00544 -12.1114,34.38816 -4.9469,2.54112 -18.8794,-2.23296 -12.8419,-8.88672 2.3289,-2.56608 6.8217,-2.39616 9.9763,-2.46144 l 8.64,-24.96 c -6.6874,-0.98784 -12.8717,-3.04704 -13.44,-10.56 l 17.28,4.8 c 0.1133,-6.90432 -10.0291,-13.12704 -6.5098,-20.05535 3.0384,-5.98176 19.7847,0.43488 18.7872,-7.07136 -0.6038,-4.54272 -7.3132,-4.41696 -10.3152,-6.336 -4.1241,-2.63712 -5.399,-7.07328 -5.8022,-11.65728 6.1555,0.12672 10.6656,2.13312 14.4,-3.84 -8.2099,-3.11136 -11.7773,-20.30304 -4.4218,-26.16768 3.5184,-2.80512 9.8084,-1.67232 14.0218,-1.67232 l -2.88,-14.4 13.4544,10.34112 20.1456,5.01888 M 799.53001,268.81187 c 31.54944,-5.25696 35.2416,50.09376 5.76,55.05408 -33.12115,5.57376 -37.55654,-49.7568 -5.76,-55.05408 m 346.55999,2.56704 c 4.585,3.80256 7.4448,9.19872 0.96,12.48 l -0.96,-12.48 m -380.15999,9.6 c -7.80653,0.58272 -10.65129,5.06592 -16.32,-2.88 5.46528,-0.11328 13.76515,-3.4752 16.32,2.88 m 67.2,13.44 c 1.11648,-2.66688 2.32512,-5.2656 3.9408,-7.67904 1.11168,-1.6608 2.35104,-3.24288 3.82848,-4.59552 11.73792,-10.74912 14.72064,11.71296 -0.0893,13.1328 -2.70528,0.26016 -5.11296,-0.0998 -7.68,-0.85824 m 187.20001,-10.56 c -0.3523,14.97312 -11.7687,24.50016 -24.96001,28.8 0.552,-12.0528 12.23711,-28.4928 24.96001,-28.8 m 78.72,4.8 c 0.7113,6.94176 4.2845,12.30912 10.56,15.36 3.9581,-5.43648 8.8934,-6.44256 15.36,-6.72 -3.4973,-6.99648 -13.1424,-7.12608 -20.16,-7.68 l -0.96,3.84 h -0.96 l -3.84,-4.8 m -329.28001,2.88 -6.72,11.52 c 3.84941,1.37856 5.84333,2.61024 6.72,6.72 -9.45225,-3.0096 -13.13731,-3.74976 -23.04,-0.96 3.18643,-8.21952 14.2608,-16.32672 23.04,-17.28 m 89.28,6.72 c -3.31008,5.4288 -7.29792,6.66528 -13.44,6.72 3.4752,-4.4256 7.9008,-6.23328 13.44,-6.72 m 60.48,0 v 6.72 h -8.64 v -4.8 l 8.64,-1.92 m 277.44001,5.76 c 5.5008,3.44064 9.8409,7.44 12.48,13.44 -4.6426,-2.6832 -12.1162,-7.6704 -12.48,-13.44 m -95.04,5.76 2.88,21.12 h 0.96 l 5.76,-21.12 h -9.6 m -335.03999,5.76 c 0,13.65024 -2.51837,16.1376 -15.36,21.12 0,-12.25056 0.28752,-23.01504 15.36,-21.12 m 85.44,-0.96 c -3.74496,9.66624 -14.79936,17.67744 -24.96,19.2 4.29024,-8.10048 15.58848,-18.23424 24.96,-19.2 m 159.35999,6.72 -13.43999,3.84 c 2.30499,-4.89696 10.78179,-12.17664 13.43999,-3.84 m -87.35999,0.96 c 2.07072,7.02144 0.14304,13.84128 -5.76,18.24 l -0.96,-17.28 6.72,-0.96 m 66.19872,2.64192 c 7.34112,-0.18048 6.1008,13.72512 -1.86048,14.04576 -7.96224,0.3216 -5.15904,-13.87392 1.86048,-14.04576 m 182.44127,2.15808 -12.48,-0.96 c 3.9734,-2.11296 9.7526,-3.24672 12.48,0.96 m -161.28,1.92 c -1.0771,6.77376 -7.7194,12.1248 -12.47999,4.8 l 12.47999,-4.8 M 776.49001,351.0589 c -2.60025,-6.20256 -0.46713,-11.05439 0.96,-17.27999 11.18707,2.27808 8.04663,14.20895 -0.96,17.27999 m 148.8,-7.68 c 1.14048,-1.95455 12.29184,-12.63935 12.14784,-4.76255 -0.0806,4.46111 -9.12384,4.52351 -12.14784,4.76255 m -79.68,-3.83999 -2.88,-2.88 2.88,2.88 m 309.11999,-2.88 v 1.92 h -1.92 v -1.92 h 1.92 m -175.67999,7.67999 c -3.4224,1.34592 -5.68128,4.24512 -8.90976,5.63328 -3.89472,1.67424 -5.58432,-2.49888 -4.70016,-5.62176 2.14656,-7.58111 11.7936,-7.40447 13.60992,-0.0115 m -153.6,-4.80001 2.88,7.67999 -7.68,-3.84 v -1.91999 l 4.8,-1.92 m 130.56,0 c -0.43008,8.26943 -5.19168,13.05695 -13.44,13.43999 0.7248,-8.23392 5.07552,-13.05119 13.44,-13.43999 m -138.24,1.92 c -4.6992,5.37983 -12.47491,5.22911 -19.2,5.75999 l 1.92,6.72 c -8.68147,-0.97056 -7.66051,-7.7328 -0.94521,-11.54879 5.23603,-2.976 12.58387,-2.27424 18.22521,-0.9312 m 330.23999,2.87999 -7.68,2.88 v -1.92 l 7.68,-0.96 m -43.2,8.64 -7.68,10.56 c 1.0982,-5.0976 2.6755,-8.52672 7.68,-10.56 m -4.8,16.32 -8.64,11.52 c 0.1488,-6.168 2.2848,-10.2336 8.64,-11.52 m -28.8,14.4 c -5.5584,-2.7168 -7.536,-7.46688 -7.68,-13.44 6.7622,1.37664 9.5318,6.97824 7.68,13.44 m 214.0935,-4.05312 c 4.8835,-0.39648 4.4621,6.32352 0,6.32256 -4.2067,0 -4.103,-5.98944 0,-6.32256 m -224.6535,18.45312 -2.88,11.52 7.68,-0.96 c -10.5139,14.11008 -36.816,8.36928 -51.84,10.87296 -4.8384,0.80544 -14.42591,7.00992 -18.87071,4.44288 -6.19968,-3.58176 -4.1664,-13.32288 2.55168,-14.67552 5.76193,-1.16064 11.80513,5.16768 16.31903,7.99968 l -2.88,-5.76 37.44,-2.88 -2.88,-5.76 15.36,-4.8 m -36.48,22.08 v 0.96 h -9.6 l 9.6,-0.96 m -34.55999,8.64 c -2.16576,5.87328 -6.31488,4.14144 -9.6,0 h 9.6 m -19.2,11.52 c 13.16448,1.47168 1.47168,13.16448 0,0 m 0.96,15.36 c -1.53216,5.28288 -3.05472,11.0544 -9.6,9.6 l 7.68,-9.6 h 1.92 m 31.67999,6.72 -1.92,4.8 h -1.91999 l -0.96,-4.8 h 4.79999 m -4.79999,19.2 -2.88,-2.88 2.88,2.88 m 29.75999,94.08 c 0,9.7152 -4.2941,25.44864 3.1478,33.39552 6.2112,6.63456 18.1767,7.02432 26.6122,8.03328 26.1658,3.13152 56.5459,-2.19072 61.9546,-32.7888 3.8467,-21.7632 -11.8656,-36.33984 -29.3146,-45.36768 -5.1139,-2.64672 -18.3667,-9.93408 -13.4093,-17.69088 2.5114,-3.92928 9.5827,-3.16032 13.4093,-2.40576 11.5949,2.28672 19.512,11.3328 30.72,14.58432 2.639,-8.90688 5.1686,-24.3264 -0.01,-32.6256 -4.1606,-6.67392 -13.1434,-9.95904 -20.1552,-12.67584 -22.1616,-8.58528 -55.9632,-8.39616 -68.809,15.54144 -11.2742,21.00864 0.7364,43.29504 18.889,55.33824 5.7264,3.79968 25.9277,10.3056 23.7715,19.50336 -1.3104,5.59296 -8.4662,6.79968 -13.2115,6.74112 -12.0912,-0.15168 -21.9101,-8.41152 -33.6,-9.58272 m 312.0001,-6.72 c 10.7836,2.09088 12.3465,3.2736 15.36,13.44 -31.753,7.53888 -49.2778,-25.9104 -29.4442,-49.92 12.2822,-14.86944 32.1082,-15.3792 49.6042,-11.50656 4.8163,1.0656 14.0371,6.94656 18.7843,5.07744 3.0883,-1.21536 3.1373,-7.16544 3.2582,-9.89088 0.4608,-10.45056 -0.8601,-19.1568 -10.5264,-25.0272 -8.0745,-4.90464 -17.7264,-5.80224 -26.8761,-6.9264 -27.0826,-3.32544 -57.2612,0.26208 -77.5959,20.59776 -23.1907,23.18976 -24.6048,68.75328 -0.1267,91.83168 22.4074,21.12576 55.609,27.8784 85.4026,24.31296 7.3833,-0.8832 16.2691,-1.37472 23.0361,-4.68288 8.0103,-3.91584 6.6883,-11.9232 6.7248,-19.46592 0.071,-14.78784 6.2323,-40.05696 -4.464,-52.58112 -6.264,-7.3344 -30.6451,-3.09888 -39.6969,-3.09888 -3.504,0 -10.0224,-1.22496 -12.7277,1.53888 -4.0541,4.14432 -0.7123,20.5104 -0.7123,26.30112 m -199.6801,-83.52 c -5.7235,30.83136 -0.96,63.90528 -0.96,95.04 0,7.05984 -3.4963,27.71904 1.6723,32.88768 2.6727,2.67168 8.353,1.67232 11.7677,1.67232 h 32.64 v -28.8 c 0,-3.25152 -0.8381,-8.376 1.6723,-10.94112 4.273,-4.36416 18.6,-0.57888 24.2477,-0.57888 17.2129,0 36.0317,-2.71488 46.465,-18.24096 8.1581,-12.1392 4.5869,-22.1472 0.3447,-34.55904 -2.5258,-7.39008 -3.2583,-14.02848 -8.6986,-20.12256 -9.7171,-10.88352 -24.2774,-14.07552 -38.1111,-15.5568 -23.329,-2.49792 -47.568,-0.80064 -71.04,-0.80064 m -172.79999,4.8 c -3.96768,15.48 -13.99968,29.04192 -31.68,24.82656 -3.74208,-0.89184 -8.99136,0.22464 -10.56,-3.70656 l 42.24,-21.12 m 241.77789,6.37824 c 4.4871,0.44736 2.3203,6.27072 -0.1881,7.84992 -3.2813,2.06496 -11.3674,1.74624 -15.073,0.77856 -2.231,-0.58272 -5.6304,-4.03776 -2.3779,-5.784 2.4729,-1.32768 14.7581,-3.13248 17.639,-2.84448 m -211.05789,0.34176 -3.84,3.84 v -3.84 h 3.84 m 349.44009,5.76 h -10.56 c 2.8329,-5.616 7.5849,-5.30208 10.56,0 m -252.4801,-2.88 c -2.8493,8.28192 -9.7834,5.68512 -16.32,8.94144 -4.6454,2.31456 -7.44,6.62496 -12.48,8.33856 -1.8374,-14.9184 17.5814,-16.39488 28.8,-17.28 m 135.3601,0.96 -3.84,18.24 12.48,-4.8 c -1.5572,8.59584 -9.936,15.3744 -18.24,17.28 -0.4973,-11.39712 -12.3927,-22.79616 2.878,-28.4928 2.2292,-0.83136 4.4295,-1.60128 6.722,-2.2272 m -61.2347,1.53888 c 6.7258,-2.94528 15.9696,5.79552 7.418,9.26496 -6.3946,2.59392 -15.9236,-5.5392 -7.418,-9.26496 m 163.9547,6.14112 -14.4,-1.92 c 4.632,-5.56128 10.968,-4.09632 14.4,1.92 m 45.12,3.84 c -4.4141,-1.31232 -7.3335,-3.13536 -8.64,-7.68 4.655,0.94176 7.103,3.20064 8.64,7.68 m -192.9601,33.6 c 0,-7.65888 -3.385,-25.872 0.9869,-32.22336 2.736,-3.97632 10.4841,-2.19744 14.3731,-1.43904 17.6852,3.44832 19.5908,29.60736 0.96,33.21312 -5.2637,1.01856 -10.9795,0.44928 -16.32,0.44928 m -73.92,-26.88 -7.68,-6.72 c 4.5754,0.51456 6.7363,2.15616 7.68,6.72 m -48.96,7.68 -23.04,10.56 c 2.7091,-4.09632 6.719,-7.7616 8.3107,-12.48 0.9955,-2.95296 0.2381,-9.28608 3.5107,-10.78848 6.2141,-2.85408 9.5463,8.78592 11.2186,12.70848 m 249.6001,-5.76 c -3.0884,5.94432 -10.0349,7.54656 -16.32,7.68 3.455,-6.35424 9.3216,-8.83008 16.32,-7.68 m -143.0401,13.44 9.6,1.92 -1.92,10.56 c -11.0275,-3.85344 -17.9942,-14.39328 -18.24,-25.92 9.1027,1.18176 12.264,4.25376 10.56,13.44 m 78.7201,-4.8 c -1.1396,8.46144 -1.9498,15.3264 -11.52,15.36 -1.8845,-9.17088 1.39,-15.1152 11.52,-15.36 m -354.24009,7.68 c -3.70272,5.016 -16.02816,14.57376 -21.12,6.72 l 9.6,-1.92 -1.92,-5.76 13.44,0.96 m 327.57889,1.75872 c 6.7892,-1.56192 19.6676,16.89408 11.9559,19.57536 -6.3447,2.20608 -13.7607,-5.20896 -14.7379,-10.77408 -0.4637,-2.64384 -0.7056,-7.99872 2.782,-8.80128 M 1058.73,540.1789 c -2.4029,4.35744 -6.2352,4.392 -9.6,0.96 l 9.6,-0.96 m 233.2801,0 -0.96,7.68 c -5.0698,-0.2208 -9.9015,-0.96768 -13.44,-4.8 l 14.4,-2.88 m -214.0801,13.44 c -2.5498,-0.32256 -5.159,-0.6144 -7.679,-1.12704 -12.0778,-2.4576 -1.9767,-16.31136 5.2953,-4.6224 1.1424,1.83648 1.7799,3.69888 2.3837,5.74944 m 87.36,-4.8 v 0.96 l -8.64,2.88 v -6.72 l 8.64,2.88 m -286.07999,4.8 -3.84,10.56 c -7.28832,-2.05344 -16.37568,-2.44704 -19.2,-10.56 h 23.04 m 293.75999,2.88 1.92,6.72 5.76,-3.84 c 2.6774,9.25728 0.5117,12.35136 -4.8,20.16 -6.9446,-3.47136 -10.2048,-18.5472 -2.88,-23.04 m 130.5601,0 c -5.3204,10.17024 -14.3722,10.30848 -24,6.72 v -1.92 l 24,-4.8 m -203.5201,7.68 c -2.6582,1.65504 -5.1014,3.56064 -7.68,5.33568 -16.7501,11.52672 -12.2285,-18.94848 3.7834,-9.7392 2.0236,1.16352 2.8627,2.4144 3.8966,4.40352 m 52.8,-6.72 c 8.5344,2.83872 14.6659,16.07136 8.0899,23.85792 -4.7472,5.62176 -9.8457,1.42656 -9.9302,-4.65792 -0.041,-2.89632 0.7161,-5.74848 0.8429,-8.64 0.1603,-3.66624 -0.05,-7.0176 0.9974,-10.56 m 56.64,5.76 -21.12,1.92 c 0.9293,-10.21056 18.3792,-11.3664 21.12,-1.92 m 168.9601,-1.92 v 6.72 l -11.52,-4.8 11.52,-1.92 m -478.08009,3.84 c -2.76288,3.28416 -4.74048,3.672 -8.64,1.92 l 8.64,-1.92 m 207.35999,2.88 c 0.7882,3.19968 2.5421,8.09664 1.3027,11.31456 -3.2995,8.57376 -16.6934,7.95936 -21.4627,2.12544 l 20.16,-13.44 m 203.5201,5.76 -7.68,9.6 c 4.1884,0.56448 13.3286,1.31424 15.191,5.87424 2.3491,5.74944 -9.5597,8.8464 -13.271,9.48576 l 0.96,-10.56 c -4.0263,-0.71808 -16.8596,-5.4288 -15.0279,-11.25408 1.8519,-5.89056 15.5991,-4.39584 19.8279,-3.14592 m -458.88009,10.56 c 3.03744,0.87552 7.86528,2.13984 9.48384,5.1744 4.44096,8.32896 -8.48544,16.02816 -15.24384,14.47776 -3.58656,-0.82368 -13.23168,-5.46048 -9.55488,-10.60224 2.76,-3.86112 9.96672,4.2336 13.33824,4.42176 6.09312,0.33984 2.23872,-10.26336 1.97664,-13.47168 m 324.47999,16.32 c -2.9818,-0.70464 -6.5395,-2.57472 -9.6,-1.56096 -3.4214,1.13376 -7.223,6.88896 -11.2003,5.64288 -3.4109,-1.06848 -0.3178,-6.10752 0.5405,-7.92192 3.6921,-7.81248 16.3689,-19.00704 19.8816,-3.83904 0.574,2.47968 0.3763,5.15232 0.3782,7.67904 m -71.04,-5.76 v 0.96 c -6.3197,3.86688 -10.9056,1.99296 -8.64,-5.76 l 8.64,4.8 m -46.08,5.76 c -4.7866,7.2336 -17.0899,9.47424 -22.4045,0.864 -1.7472,-2.832 0.1517,-5.23488 3.2227,-5.34432 3.5434,-0.12768 7.0436,1.91616 10.5418,2.38656 3.2122,0.43296 5.689,0.67392 8.64,2.09376 m 32.64,5.76 -25.92,1.92 -2.88,-3.84 c 6.5357,-9.5808 26.4461,-11.27712 28.8,1.92 m 249.6001,-8.64 v 0.96 c -7.5552,4.93632 -14.3021,4.8 -23.04,4.8 1.6233,-9.9456 16.0022,-5.81856 23.04,-5.76 m 17.28,10.56 -11.52,-5.76 c 5.3856,-4.07424 10.343,-0.0538 11.52,5.76 m -183.3601,2.88 c -5.0563,-0.10752 -9.0595,-0.88416 -12.48,-4.8 5.4624,-1.61376 10.7088,-1.30464 12.48,4.8 m -407.03999,43.2 0.96,3.84 h -3.84 l 0.96,-3.84 h 1.92 m -15.36,13.44 2.88,7.68 -8.64,-2.88 z"
       id="path23515" />
  </g>
</svg>
