<svg version="1.1" width="100" height="102" viewBox="0 0 669.3 686.7" xmlns="http://www.w3.org/2000/svg"><path d="M1021.3 184c-5.2 19.7 15 36.5 32.6 25 8.8 20 28 2.5 42.3 3 8.6.3 15.6 7.9 23 11.4-4.1 5.8-10.9 9.3-14.8 15.3-6.2 9.7-9.6 21.3-14.3 31.7-4.7 10.5-11 19.6-14.4 30.7-7.2 24.3-3.6 52.4-20.7 73-7 8.4-18.1 18.7-29 21.6-22 6-39.7-2.6-57.2 17.8a64.7 64.7 0 0 0-14.2 23c-5.1 18.6-.8 35.2-15.2 50.8-8 8.6-25.6 11.4-36.2 16.4v2l24-4.9v1c-5 2.3-17 7.6-12.3 15 2.1 3.2 7.5 5.3 10.4 8-12.9 4.2-24.5 8.5-35.5-1.9h22c-5.7-19-30-12.4-41.2-4A50.6 50.6 0 0 0 852 542c-3 9.8-1.2 19.6-6.7 28.8-5.7 9.5-19.5 19.3-20.7 30.7-.9 8.2 6.6 11.1 13.2 12.5v1c-3 .7-6.4 2-9.6 1.2-5.7-1.6-12-8.6-17.9-3.6a14 14 0 0 0-4.9 11c.2 2.2 2.4 5.7.2 7.5-3.3 3-6.7-2.4-10-2.8-6.1-.7-4.5 9.3-3.8 12.6-9.7-7.6-7.7 5.1-7.7 11.5-3.1-2.1-7.6-6.4-11.5-6.5-3.7 0-7 4-9.6 6-7.5 6.2-23.5 16.2-26.8 25.5-1.3 3.8 3.4 7 6.6 7.9 11.6 3.4 28.8-13.2 38.4-18.3 24.4-12.8 47.1-28.3 71-42 10.5-6 27.5-11.3 35.2-20.6 5.6-7 2.2-14.8-.6-22 11.9-.1 17.8-15.2 26.9-22.3 10-7.8 21-14.6 33.6-17.5 16.7-3.7 37.4-2 47.5-18.8 11.8-19.6.2-45.3 17.8-62.4 18.7-18.3 49.7-13.2 73-22.1-3.4-3.7-6.9-3.8-11.6-3.9v-1c6.2-1.6 11.6 1.7 17.3.3 13.2-3.4 30.7-20.2 36.8-31.9 7.5-14.3-.7-30.9 14-42.2v-2l-6.7-1.9c4-4.8 10.4-3.6 15.4-7.2 8.1-6 13.6-14.2 23-18.4 7.3-3.2 15.4-2.5 23-3.5 5.4-.6 12.1-3.7 17.4-1.5 12 5 12.4 20 20.5 28.5 4.5 4.7 11.8 4.4 16.5 9.2 3.7 3.8 5.2 9.2 9.2 12.8 3.3 3 8 3.8 10.9 7.2 5 5.8 8.2 14.6 17.7 13.7 12.7-1.2 3.8-23 6.7-30.2 4-10.4 29.8-2.6 21-21.1-.8-1.8-2.2-4-4-5-6-3.4-10.2 10-16.9 8.1-11.4-3.2 8.1-21.3.6-27.4-5-4.1-14.1 1.6-15.6 7-1.1 4.1.7 8.3.6 12.5 0 2.2-.6 4.6-2.4 6.2-3.2 2.7-14.6-1.4-19.7-.5 0-16.7-9.3-13.2-19.1-23-9.6-9.6-16.4-22.1-24.8-32.7-3.3-4.2-14.6-13.2-13.7-19.1.8-5 8.2-7.4 11-10.8 4-4.5 2-10.4 5.2-15 3.3-5 10.2-5.6 14.1-10 3.3-3.5 4.5-8.5 7.5-12.2 4-5 10.2-6.7 14.8-11 4.4-4 7-9.7 11.8-13.2 5.1-3.7 12.1-3 17.1-7 5.5-4.3 5.9-12.4 11.6-16.3 4-2.6 9.2-1 13.4-3 5.5-2.7 7-8.9 11.6-12.5 4.5-3.6 10.7-3.7 15-7.7 6.9-6.3 4.3-15.4 9-22 3.8-5.5 12.8-2.5 14.7-11 1.6-7.4-1-16.4-.2-24 .5-4.7 4.2-9 4.2-13.5 0-4-3.5-7.3-1.8-11.4 4-10.4 15.4 5.3 20 2 3.5-2.4-1-11.8 1.5-16.5.6 2 5.7 11.7 8.3 6.3 1-2-1.5-4.6.1-6.6 2.4-2.8 6.3-.5 8.8-4.5l-8.6-2.9 8.6-10.5c-8-.1-6.9-4.9-12.5-8.9-4.2-3-9.6-4-12.7-8.5-2.3-3.4-.8-8.1-3.9-11-2.4-2.3-5.4-1.2-8.1-2.5-4.2-1.9-7.2-5.1-11.7-6.7-13.6-4.8-28.4-1.7-41.3 3.8-13 5.6-27.5 15.8-23.1 31.8 2 7.2 7.8 13.6 8.4 21.2.6 6.3-4.9 11.4-6.5 17.2-1.3 4.7.2 10.1-2 14.4-2 4-6.3 6.1-8.8 9.7-3 4.3-3.8 9.5-8.4 12.7-5.2 3.7-12.4 3.3-16.7 8.5-3 3.7-4.2 8.6-7.5 12.2-4.4 4.6-10.7 6.4-14.5 11.7-3.8 5.3-4.8 12.2-9.5 17-5 5-12.6 5.8-18 10.2-4 3.3-5.5 8.3-8.8 12.1-3.5 4-8.2 5.8-12.1 9.2-4.3 3.8-5.6 9.5-9.2 13.8a67.4 67.4 0 0 1-20.8 14.3c-3.6 1.2-7-3-9.6-5-7-5.7-14.3-11.7-22-16.5-3.1-1.9-8.9-4-9.5-8.1-.8-6 7.8-12.4 8.3-19.2.8-9.5-7-12.3-9.6-20.2-1.4-4 1.2-8.3 1-12.4-.2-6.5-5.8-13-10.5-17-7-5.8-16.8-.9-22.8-5.6-4.3-3.3-4.8-9-8.2-12.9-4.6-5.2-14-6.8-20.7-6.8-13.7 0-14.9 10.1-25 15.4-6.9 3.5-13-.6-16.8 8.6-3 7.4 2.6 13.6.6 20.2-1.2 4.3-5.4 7-6.5 11.5-3.1 14 8.2 27.3 20.8 30.7m314-173.7c-16.4 1.6-27.6 12.3-33.7 26.8-7.3-2.2-5.6-10.2-2-15.3 4.6-6.8 29-21.7 35.6-11.5M1367 16c0 2.8.7 7.7-2.3 9.3-3 1.5-12.1-2-10.7-6.1 1.3-3.7 10-3.2 13-3.2m-14.4 14.3c15.3.4 7.7 20.2-2.9 20.2-11.5 0-9.4-20.6 2.9-20.2m28.8 4-9.6 10.5-1-9.6 1-1h9.6m-77.8 48.6c8.9-1.5 7 9.7 11.8 13a47.3 47.3 0 0 0 18 7.4c4.6.6 10.3-1 14 2.5 3.3 3 7 13 1.2 15.3-3.6 1.6-8.2-.5-11.4-2.2-7-3.7-13.7-8-21-11.2-4.6-2-10.6-2.9-14.2-6.4-5-4.8-8.2-16.8 1.6-18.4m-13.4 21.2c11.5 0 18.5 18.8 26.1 24.8 4.2 3.3 9.5 1.1 13 6.3 4 6.3.5 15.6-7.4 16.2-15.5 1.2-14.3-16.8-23.2-24.5-4.2-3.7-12.3-4.3-15.2-9.2-2.7-4.6 1-13.6 6.7-13.6m-243.8 4.6c5.1-1.2 11.6 1 14.6 5.4 2.9 4.3 2.6 11.3-3.2 12.8-11.2 2.9-28.2-14.6-11.4-18.2m-19.2 15.3c18.2-3.3 21.6 22 4.7 24.4-14.5 2-20.3-21.7-4.7-24.4m238 2.1c10-3.1 15.5 22.3 23.2 27.3 4.7 3 10.6-.7 14.6 4 2.8 3.5 3.2 9.2-1.4 11.1-17.8 7.5-26.8-13-35.5-23.7-4.3-5.4-11.7-15.3-.9-18.7m-182.4.8c14.2-3.8 21.6 19.7 6.8 24-12.2 3.4-18.2-20.9-6.8-24m-12.4 24.6c5.6 10-2.4 8.9-6 16.3-1.8 3.8-1 9-6.5 10-4.4.8-6.2-4.3-8.9-6.8-4.4-4-16-7.3-9-15.4 1.7-2 4.2-3.1 5.8-5.2 3.2-4.2 1.8-14.5 10-12.5 7 1.7 4 13 14.6 13.6m176.6-9.2c6.7-1 5.5 8.2 8.8 11.9 4.6 5 11.3 8 15.7 13 2.4 2.7 2.7 6.3 4.5 9.2 4 6.5 8.1 11.6-3 14-15 3-10.2-10.8-17.5-16.3-6.1-4.5-12.8-1.5-17-10.1-3.9-8-1.8-20.2 8.5-21.7m-227.5 11.5c12.9-3.7 19 18 5.7 21-10 2.3-15.3-18.2-5.7-21m74.9 9.6c13.6-2.2 17.2 21.9 3.8 24.2-13.2 2.3-16.5-22.3-3.8-24.2m131.5 10.2 2 10.3 13.3 17.5c6.4-2.5 10 2.8 6 8.5-3.2 4.7-10.3 6-15.6 4.5-13.1-3.6-36.7-31.5-16.3-40.2 3.5-1.5 7-.6 10.6-.6m-192 6.2c11.7-2.4 21.4 20.4 7.6 23-11.2 2-18.6-20.7-7.6-23m32.6 7.6c15.6-3.6 26.7 18 9.6 23-16.6 4.9-26.5-19.1-9.6-23m160.3 46.6c-9.2 4.9-13 .1-16.3-8.6l-3.8 3.8a45 45 0 0 1-21-19.2 8.6 8.6 0 0 1 7.5-12.2c5.5-.1 8.2 5.4 11.6 8.7 9.4 8.8 15.7 16.3 22 27.5m-25 21.2c-13.1-1.2-14.8-11.4-24.1-17.6-2.3-1.5-5-.6-7.3-1.9-2.7-1.4-4.4-5.4-2.3-8 3.4-4.6 8.9.8 11.7 3.2 8.4 6.9 20 12.7 22 24.3M788 229.6a68.9 68.9 0 0 0-41 112.8c18.8 21.7 52.7 25.6 79.4 21.7a65.9 65.9 0 0 0 24-7.6c38.3-22 31.4-77.1 6.3-106.2-16-18.5-45.5-24.4-68.7-20.7m338.9.5c6.2 2.7 13.3 7.2 16.3 13.4-5.5-2.4-14.8-7.3-16.3-13.4m-238 2c0 28.4-2.1 56.8 0 85.4 1.4 18.5 17 33.5 33.5 40 28.6 11.5 67.6 9.7 92.2-10 7.6-6 10-15.1 12-24.3 4.5-20.1 2.3-40 2.4-60.5 0-8 4.5-22.8-2.4-29.2-3.3-3.2-8.8-2.4-13-2.4H981v52.8c0 9.4 1.3 19.9-2.4 28.8-5.4 12.7-25.4 20.1-35.5 8.4-4.6-5.2-3.4-12.5-3.4-19 0-15.4 1-30.7 1-46 0-8.5.8-20.2-8.7-24-6-2.5-14.7-1-21.1-1-7.5 0-14.7 0-22 1m129.5 14.3c-2.7 8-9.3 11.4-17.3 11.5 3.1-7.1 9.7-10.8 17.3-11.5m124.8 12.5-9.6 11.5-2.9-22 12.5 10.5m-359-9.6 17.3 5.8c-1.5 8.8-27.8 19.2-32.7 9.6 11-1.7 13.8-5.3 15.4-15.4m338.9 1v11.5c-14.5 0-13.7-10.3 0-11.5m-316.8 10.5 1-3.8c8.7-1.2 18 0 25.8 5 2.9 1.8 8.6 8.5 2.8 10.7-4.3 1.5-8.3-3.2-11.4-5.4-5.2-3.6-12-6-18.2-6.5m114.2-1.9 3.8 23-12.4 1c0-9.2.6-18.3 8.6-24m81.6 20.2c-1.7-5.6 1.4-16.3 9.4-14.4 6.1 1.5-.3 9.6-2.8 11.4-2 1.4-4.3 2.2-6.6 3m136.3 2.8c-2.2 15-10.6 20.2-18.6 31.7-3.4 5-3 11.3-6.3 16.3-4 6.2-10.2 10.5-14.5 16.4-4.2 5.7-6.4 12.6-9 19.2-3.8 9.7-1.6 29-12 34.3-5 2.6-19-2.2-13-8.8 2.4-2.6 6.9-2.4 10-2.5l8.7-25c-6.7-1-12.9-3-13.4-10.5l17.2 4.8c.1-7-10-13.1-6.5-20 3-6 19.8.4 18.8-7.1-.6-4.6-7.3-4.5-10.3-6.4-4.1-2.6-5.4-7-5.8-11.6 6.1 0 10.7 2 14.4-3.9-8.2-3-11.8-20.3-4.4-26.1 3.5-2.9 9.8-1.7 14-1.7l-2.9-14.4 13.5 10.3 20.1 5m-338.9-13c31.6-5.3 35.3 50 5.8 55-33.1 5.5-37.6-49.8-5.8-55m346.6 2.5c4.6 3.8 7.4 9.2 1 12.5l-1-12.5M765.9 281c-7.8.6-10.6 5-16.3-2.9 5.5-.1 13.8-3.5 16.3 2.9m67.2 13.4c1.1-2.6 2.4-5.2 4-7.7a25 25 0 0 1 3.8-4.6c11.7-10.7 14.7 11.8 0 13.2-2.8.2-5.2-.1-7.8-.9m187.2-10.5c-.3 15-11.7 24.5-25 28.8.6-12 12.3-28.5 25-28.8m78.8 4.8c.7 6.9 4.2 12.3 10.5 15.3 4-5.4 8.9-6.4 15.4-6.7-3.5-7-13.2-7.1-20.2-7.7l-1 3.9h-1l-3.8-4.8m-329.2 2.8-6.8 11.6c3.9 1.3 5.9 2.6 6.8 6.7-9.5-3-13.2-3.8-23-1a31.9 31.9 0 0 1 23-17.3m89.2 6.8c-3.3 5.4-7.2 6.6-13.4 6.7 3.5-4.4 8-6.3 13.4-6.7m60.5 0v6.7H911v-4.8l8.6-2M1197 304a30 30 0 0 1 12.4 13.5c-4.6-2.7-12-7.7-12.4-13.5m-95 5.8 2.8 21.1h1l5.7-21.1h-9.6m-335 5.7c0 13.7-2.5 16.2-15.4 21.2 0-12.3.3-23 15.4-21.2m85.4-1a33.8 33.8 0 0 1-25 19.3c4.4-8.1 15.7-18.3 25-19.2m159.4 6.7-13.4 3.8c2.3-4.9 10.7-12.1 13.4-3.8m-87.4 1c2.1 7 .2 13.8-5.7 18.2l-1-17.3 6.7-1m66.2 2.7c7.4-.2 6.1 13.7-1.8 14-8 .4-5.2-13.8 1.8-14m182.5 2.2-12.5-1c4-2.1 9.7-3.2 12.5 1m-161.3 1.9c-1 6.8-7.7 12.1-12.5 4.8l12.5-4.8m-235.2 22c-2.6-6.1-.5-11 1-17.2 11.1 2.3 8 14.2-1 17.3m148.8-7.7c1.1-2 12.3-12.7 12.1-4.8 0 4.5-9 4.5-12.1 4.8m-79.7-3.9-2.9-2.8 3 2.8m309-2.8v1.9h-1.9v-2h2M979 344.4c-3.5 1.4-5.7 4.3-9 5.7-3.9 1.6-5.5-2.5-4.7-5.6 2.2-7.6 11.8-7.5 13.7 0m-153.6-4.9 2.8 7.7-7.6-3.8v-2l4.8-1.9m130.5 0c-.4 8.3-5.2 13.1-13.4 13.5.7-8.3 5-13 13.4-13.5m-138.2 2c-4.7 5.3-12.5 5.2-19.2 5.7l1.9 6.7c-8.7-1-7.7-7.7-1-11.5 5.3-3 12.6-2.3 18.3-1m330.2 3-7.7 2.8v-1.9l7.7-1m-43.2 8.7-7.7 10.5c1.1-5 2.7-8.5 7.7-10.5m-4.8 16.3-8.6 11.5c.1-6.1 2.3-10.2 8.6-11.5m-28.8 14.4c-5.5-2.7-7.5-7.5-7.7-13.4 6.8 1.3 9.6 7 7.7 13.4m214.1-4c4.9-.5 4.5 6.3 0 6.3-4.2 0-4.1-6 0-6.4m-224.7 18.5-2.8 11.5 7.6-1c-10.5 14.2-36.8 8.4-51.8 11-4.8.7-14.4 7-18.9 4.4-6.2-3.6-4.1-13.3 2.6-14.7 5.8-1.2 11.8 5.2 16.3 8l-2.9-5.8 37.5-2.8-3-5.8 15.4-4.8m-36.4 22v1h-9.6l9.6-1m-34.6 8.7c-2.2 5.9-6.3 4.2-9.6 0h9.6m-19.2 11.5c13.2 1.5 1.5 13.2 0 0m1 15.4c-1.6 5.3-3 11-9.6 9.6l7.7-9.6h1.9m31.6 6.7-1.9 4.8h-1.9l-1-4.8h4.8m-4.7 19.2-3-2.9 3 3m29.7 94c0 9.7-4.3 25.4 3.2 33.4 6.2 6.6 18.1 7 26.6 8 26.1 3.2 56.5-2.2 62-32.8 3.8-21.7-12-36.3-29.4-45.3-5.1-2.7-18.4-10-13.4-17.7 2.5-4 9.6-3.2 13.4-2.4 11.6 2.3 19.5 11.3 30.7 14.6 2.7-9 5.2-24.4 0-32.7-4.1-6.6-13.1-10-20.1-12.6-22.2-8.6-56-8.4-68.8 15.5-11.3 21 .7 43.3 18.8 55.3 5.8 3.8 26 10.3 23.8 19.5-1.3 5.6-8.4 6.8-13.2 6.8-12-.2-22-8.4-33.6-9.6m312-6.7c10.8 2 12.4 3.3 15.4 13.4-31.8 7.6-49.3-25.9-29.5-49.9 12.3-14.9 32.1-15.4 49.6-11.5 4.8 1 14 7 18.8 5 3.1-1.1 3.1-7.1 3.3-9.8.4-10.5-.9-19.2-10.6-25-8-5-17.7-5.9-26.8-7-27.1-3.3-57.3.3-77.6 20.6-23.2 23.2-24.6 68.8-.2 91.9 22.4 21 55.7 27.8 85.4 24.3 7.4-1 16.3-1.4 23-4.7 8-4 6.8-12 6.8-19.5 0-14.8 6.2-40-4.5-52.6-6.2-7.3-30.6-3-39.7-3-3.5 0-10-1.3-12.7 1.5-4 4.1-.7 20.5-.7 26.3m-199.7-83.5c-5.7 30.8-1 63.9-1 95 0 7-3.4 27.7 1.7 32.9 2.7 2.7 8.4 1.7 11.8 1.7h32.6v-28.8c0-3.3-.8-8.4 1.7-11 4.3-4.3 18.6-.6 24.3-.6 17.2 0 36-2.7 46.4-18.2 8.2-12.1 4.6-22.1.4-34.6-2.6-7.4-3.3-14-8.7-20-9.7-11-24.3-14.2-38.1-15.6-23.4-2.5-47.6-.8-71-.8m-172.9 4.8c-4 15.4-14 29-31.7 24.8-3.7-1-9 .2-10.5-3.7l42.2-21.1m241.8 6.3c4.5.5 2.3 6.3-.2 7.9-3.3 2-11.4 1.7-15 .8-2.3-.6-5.7-4-2.4-5.8a64.4 64.4 0 0 1 17.6-2.9m-211 .4-3.9 3.8V497h3.8m349.5 5.7H1337c2.9-5.6 7.6-5.3 10.6 0m-252.5-2.8c-2.8 8.2-9.8 5.6-16.3 8.9-4.7 2.3-7.5 6.6-12.5 8.3-1.8-14.9 17.6-16.4 28.8-17.2m135.4 1-3.9 18.2 12.5-4.8c-1.6 8.6-10 15.3-18.2 17.2-.5-11.4-12.4-22.8 2.8-28.5 2.3-.8 4.5-1.6 6.8-2.2m-61.3 1.6c6.8-3 16 5.8 7.4 9.2-6.3 2.6-15.9-5.5-7.4-9.2m164 6.1-14.4-2c4.6-5.5 11-4 14.4 2m45.1 3.8c-4.4-1.3-7.3-3.1-8.6-7.6 4.6.9 7 3.2 8.6 7.6m-193 33.6c0-7.6-3.3-25.8 1-32.2 2.8-4 10.5-2.2 14.4-1.4 17.7 3.4 19.6 29.6 1 33.2-5.3 1-11 .4-16.4.4m-73.9-26.8-7.7-6.8c4.6.6 6.8 2.2 7.7 6.8m-49 7.6-23 10.6c2.7-4.1 6.7-7.8 8.3-12.5 1-3 .3-9.3 3.5-10.8 6.3-2.8 9.6 8.8 11.3 12.7m249.6-5.7c-3.1 6-10 7.5-16.4 7.7 3.5-6.4 9.4-8.9 16.4-7.7m-143 13.4 9.5 2-1.9 10.5c-11-3.9-18-14.4-18.2-26 9 1.3 12.2 4.3 10.5 13.5m78.7-4.8c-1 8.5-1.9 15.3-11.5 15.4-1.9-9.2 1.4-15.1 11.5-15.4m-354.2 7.7c-3.7 5-16 14.6-21.1 6.7l9.6-1.9-2-5.8 13.5 1m327.6 1.8c6.8-1.6 19.7 16.9 12 19.5-6.4 2.2-13.8-5.2-14.8-10.7-.5-2.7-.7-8 2.8-8.8m-162.5 1c-2.4 4.4-6.2 4.5-9.6 1l9.6-1m233.3 0-1 7.8c-5-.3-9.9-1-13.4-4.8l14.4-3m-214 13.5c-2.6-.3-5.2-.6-7.7-1.1-12.1-2.5-2-16.3 5.2-4.6 1.2 1.8 1.8 3.7 2.4 5.7m87.4-4.8v1l-8.6 2.9v-6.8l8.6 3m-286 4.7-4 10.6c-7.2-2-16.3-2.5-19.1-10.6h23m293.8 2.9 1.9 6.7 5.7-3.8c2.7 9.2.6 12.3-4.8 20.1-6.9-3.4-10.2-18.5-2.8-23m130.5 0c-5.3 10.2-14.3 10.3-24 6.7v-1.9l24-4.8m-203.5 7.7c-2.6 1.6-5 3.5-7.7 5.3-16.7 11.5-12.2-19 3.8-9.7 2 1.1 2.9 2.4 4 4.4m52.7-6.7c8.5 2.8 14.7 16 8.1 23.8-4.7 5.6-9.8 1.4-10-4.6 0-3 .8-5.8 1-8.7 0-3.6-.1-7 1-10.5m56.5 5.7-21 2c.9-10.3 18.3-11.4 21-2m169-1.9v6.7l-11.5-4.8 11.5-1.9m-478 3.8c-2.8 3.3-4.8 3.7-8.7 2l8.6-2m207.4 3c.8 3.1 2.5 8 1.3 11.2-3.3 8.6-16.7 8-21.5 2.2l20.2-13.5m203.5 5.8-7.7 9.6c4.2.5 13.4 1.3 15.2 5.9 2.4 5.7-9.5 8.8-13.2 9.4l1-10.5c-4.1-.7-17-5.4-15.1-11.3 1.8-5.9 15.6-4.4 19.8-3.1m-458.9 10.5c3 1 7.9 2.2 9.5 5.2 4.5 8.3-8.5 16-15.2 14.5-3.6-.8-13.3-5.5-9.6-10.6 2.8-3.9 10 4.2 13.4 4.4 6 .4 2.2-10.3 2-13.5m324.4 16.4c-3-.7-6.5-2.6-9.6-1.6-3.4 1.1-7.2 6.9-11.2 5.6-3.4-1-.3-6 .6-7.9 3.6-7.8 16.3-19 19.8-3.8.6 2.5.4 5.1.4 7.7m-71-5.8v1c-6.3 3.8-11 2-8.7-5.8l8.7 4.8m-46.1 5.8c-4.8 7.2-17.1 9.4-22.4.8-1.8-2.8.1-5.2 3.2-5.3 3.6-.1 7 1.9 10.5 2.4 3.3.4 5.7.6 8.7 2m32.6 5.8-25.9 2-2.9-3.9c6.6-9.6 26.5-11.3 28.8 2m249.6-8.7v1c-7.5 4.9-14.3 4.7-23 4.7 1.6-10 16-5.8 23-5.7m17.3 10.5-11.5-5.7c5.4-4.1 10.3 0 11.5 5.7m-183.4 3c-5-.2-9-1-12.4-4.9 5.4-1.6 10.7-1.3 12.4 4.8m-407 43.2 1 3.9h-3.9l1-3.9h2M753.4 668l2.8 7.6-8.6-2.8z" stroke-width="1" stroke="currentColor" fill="currentColor" transform="translate(-730.3 .9)"/></svg>